<svg id="Layer_1" data-name="Layer 1" xmlns="http://www.w3.org/2000/svg" width="48" height="48" viewBox="0 0 48 48"><defs><style>.cls-1{fill:none;}</style></defs><path class="cls-1" d="M0,0H48V48H0Z"/><path d="M18,27.5c-4.68,0-14,2.34-14,7V38H32V34.5C32,29.84,22.68,27.5,18,27.5ZM8.68,34A19.2834,19.2834,0,0,1,18,31.5,19.2834,19.2834,0,0,1,27.32,34ZM18,24a7,7,0,1,0-7-7A7.0077,7.0077,0,0,0,18,24Zm0-10a3,3,0,1,1-3,3A2.996,2.996,0,0,1,18,14ZM32.08,27.62C34.4,29.3,36,31.54,36,34.5V38h8V34.5C44,30.46,37,28.16,32.08,27.62ZM30,24a7,7,0,0,0,0-14,6.891,6.891,0,0,0-3,.7,10.9225,10.9225,0,0,1,0,12.6A6.891,6.891,0,0,0,30,24Z"/></svg>