<?xml version="1.0" encoding="utf-8"?>
<!-- Generator: Adobe Illustrator 25.1.0, SVG Export Plug-In . SVG Version: 6.00 Build 0)  -->
<svg version="1.1" id="Layer_1" xmlns="http://www.w3.org/2000/svg" xmlns:xlink="http://www.w3.org/1999/xlink" x="0px" y="0px"
	 viewBox="0 0 22 22" style="enable-background:new 0 0 22 22;" xml:space="preserve">
<style type="text/css">
	.st0{fill:#5C213F;}
</style>
<g id="RJEXhk_1_">
	<g>
		<path class="st0" d="M0.22,10.38c0.03-2.34,1.06-4.9,3.16-7c2.1-2.1,4.67-3.16,7.64-3.16c2.96,0,5.52,1.06,7.61,3.16
			c2.09,2.1,3.15,4.66,3.16,7.63c0.01,5.95-4.82,10.81-10.84,10.78C4.95,21.75,0.22,16.88,0.22,10.38z M19.7,10.98
			c-0.02-4.82-3.9-8.65-8.65-8.67C6.27,2.28,2.3,6.14,2.31,11.02c0.01,4.77,3.83,8.66,8.67,8.67C15.84,19.7,19.69,15.78,19.7,10.98z
			"/>
		<path class="st0" d="M10.99,9.61C11,9.53,11,9.48,11,9.43c0-0.91,0-1.81,0-2.72c0-0.33,0.26-0.56,0.59-0.53
			c0.13,0.01,0.24,0.08,0.33,0.17c0.17,0.17,0.34,0.34,0.5,0.5c1.22,1.23,2.45,2.45,3.67,3.68c0.04,0.04,0.07,0.07,0.1,0.11
			c0.2,0.24,0.19,0.53-0.03,0.75c-0.36,0.37-0.73,0.73-1.1,1.1c-1.05,1.05-2.09,2.09-3.14,3.14c-0.09,0.09-0.18,0.16-0.3,0.18
			c-0.32,0.07-0.62-0.15-0.64-0.48c0-0.07,0-0.14,0-0.2c0-0.85,0-1.7,0-2.55c0-0.03,0-0.05,0-0.08c0-0.06-0.02-0.1-0.09-0.09
			c-0.04,0-0.08,0-0.13,0c-1.55,0-3.1,0-4.65,0c-0.08,0-0.16-0.01-0.24-0.02c-0.28-0.04-0.46-0.24-0.46-0.52c0-0.57,0-1.14,0-1.72
			c0-0.31,0.24-0.53,0.56-0.53c0.8,0,1.59,0,2.39,0c0.81,0,1.62,0,2.43,0C10.86,9.61,10.92,9.61,10.99,9.61z"/>
	</g>
</g>
</svg>
