<svg id="Icons" xmlns="http://www.w3.org/2000/svg" width="0.6806in" height="0.7569in" viewBox="0 0 49 54.5"><defs><style>.cls-1,.cls-2{fill:none;stroke:#455a64;stroke-linejoin:round;stroke-width:3px;}.cls-2{stroke-linecap:round;}.cls-3{fill:#455a64;}</style></defs><polyline class="cls-1" points="37.5 23 47.5 23 47.5 53 37.5 53 37.5 15 11.5 15 11.5 53 1.5 53 1.5 23 11.5 23"/><line class="cls-2" x1="17.5" y1="23" x2="31.5" y2="23"/><line class="cls-2" x1="17.5" y1="29" x2="31.5" y2="29"/><line class="cls-2" x1="17.5" y1="35" x2="31.5" y2="35"/><line class="cls-2" x1="17.5" y1="41" x2="31.5" y2="41"/><polyline class="cls-2" points="19.5 53 19.5 47 29.5 47 29.5 53"/><polygon class="cls-3" points="6.5 6.634 4.027 8 4.5 5.103 2.5 3.056 5.262 2.634 6.5 0 7.738 2.634 10.5 3.056 8.5 5.103 8.973 8 6.5 6.634"/><polygon class="cls-3" points="18.5 6.634 16.027 8 16.5 5.103 14.5 3.056 17.262 2.634 18.5 0 19.738 2.634 22.5 3.056 20.5 5.103 20.973 8 18.5 6.634"/><polygon class="cls-3" points="30.5 6.634 28.027 8 28.5 5.103 26.5 3.056 29.262 2.634 30.5 0 31.738 2.634 34.5 3.056 32.5 5.103 32.973 8 30.5 6.634"/><polygon class="cls-3" points="42.5 6.634 40.027 8 40.5 5.103 38.5 3.056 41.262 2.634 42.5 0 43.738 2.634 46.5 3.056 44.5 5.103 44.973 8 42.5 6.634"/></svg>