<?xml version="1.0" encoding="utf-8"?>
<!-- Generator: Adobe Illustrator 25.1.0, SVG Export Plug-In . SVG Version: 6.00 Build 0)  -->
<svg xmlns="http://www.w3.org/2000/svg" viewBox="0 0 50 50">
  <style type="text/css">
    
	.st0{fill:#5C213F;}

  </style>
      <path class="st0" d="M0.4 23.6c0.1-5.3 2.4-11.1 7.2-15.9 4.8-4.8 10.6-7.2 17.4-7.2 6.7 0 12.6 2.4 17.3 7.2 4.8 4.8 7.2 10.6 7.2 17.3 0 13.5-11 24.6-24.6 24.5C11.2 49.5 0.4 38.4 0.4 23.6zM44.7 25C44.6 14.1 35.8 5.4 25 5.3 14.2 5.2 5.1 14 5.2 25.1c0 10.8 8.7 19.7 19.7 19.7C35.9 44.8 44.7 35.9 44.7 25z"/>
      <path class="st0" d="M24.9 21.9c0-0.2 0-0.3 0-0.4 0-2.1 0-4.1 0-6.2 0-0.8 0.6-1.3 1.3-1.2 0.3 0 0.5 0.2 0.8 0.4 0.4 0.4 0.8 0.8 1.1 1.1 2.8 2.8 5.6 5.6 8.4 8.4 0.1 0.1 0.2 0.2 0.2 0.3 0.5 0.6 0.4 1.2-0.1 1.7 -0.8 0.8-1.7 1.7-2.5 2.5 -2.4 2.4-4.7 4.8-7.1 7.1 -0.2 0.2-0.4 0.4-0.7 0.4 -0.7 0.2-1.4-0.3-1.5-1.1 0-0.1 0-0.3 0-0.5 0-1.9 0-3.9 0-5.8 0-0.1 0-0.1 0-0.2 0-0.1 0-0.2-0.2-0.2 -0.1 0-0.2 0-0.3 0 -3.5 0-7 0-10.6 0 -0.2 0-0.4 0-0.5 0 -0.6-0.1-1-0.5-1-1.2 0-1.3 0-2.6 0-3.9 0-0.7 0.5-1.2 1.3-1.2 1.8 0 3.6 0 5.4 0 1.8 0 3.7 0 5.5 0C24.6 21.9 24.7 21.9 24.9 21.9z"/>
</svg>
 
