<svg id="Isolation_Mode" data-name="Isolation Mode" xmlns="http://www.w3.org/2000/svg" width="2.2827in" height="2.0806in" viewBox="0 0 164.3541 149.802"><path d="M-1401.7042,352.7538c-3.29-7.6674-7.6261-10.8768-14.5449-10.678-9.9144.285-17.9507-3.7176-24.6922-11.0317-6.2051-6.7323-12.9314-12.9842-19.4269-19.4488-.4726-.47-.9668-.9232-1.3979-1.4294-2.3932-2.8107-2.5064-5.44-.3468-7.5459,2.0733-2.0221,4.9464-1.8506,7.5091.692,5.6777,5.6332,11.2586,11.3635,16.9028,17.03.9234.9273,1.9677,1.734,3.1465,2.7626l3.2092-2.6923a8.4641,8.4641,0,0,0-1.0157-1.8233q-8.0743-8.1846-16.2077-16.3112c-.7053-.7085-1.4355-1.394-2.1166-2.1251-2.8645-3.0743-3.2162-5.6952-1.0856-7.8524,1.9176-1.9418,5.3169-1.9865,7.9306.7628,5.6192,5.9109,11.5122,11.5615,17.299,17.3127.7027.6984,1.4416,1.3605,2.47,2.3273l3.5577-3.2193c-3.3983-3.4642-6.5043-6.6526-9.6354-9.8162-3.2822-3.3162-6.6294-6.569-9.8724-9.9226-3.0955-3.2011-3.3981-6.0773-1.0153-8.2223,2.24-2.0167,4.9239-1.6636,7.8587,1.2939,6.3275,6.3767,12.5737,12.8341,19.1189,19.5307l3.7812-2.9512a6.5007,6.5007,0,0,0-.7628-1.5664q-8.618-8.7006-17.2795-17.3582a26.0025,26.0025,0,0,1-2.4282-2.5133c-1.8761-2.4782-1.856-4.9694.06-6.75a4.6905,4.6905,0,0,1,6.78-.12c2.8777,2.5149,5.4465,5.3819,8.1678,8.0774,3.7869,3.7514,7.4608,7.63,11.4177,11.1938,8.024,7.2266,13.6341,15.6937,13.023,26.8809-.4195,7.68,4.015,11.3833,10.4553,14.7414,2.72-2.568,5.7234-5.1658,8.4-8.0656.883-.9569,1.1514-2.67,1.2994-4.0788.3644-3.4689.3205-6.9842.751-10.4422,2.0125-16.1639,11.4451-26.5809,26.039-32.63,9.0922-3.7689,18.5838-5.1108,28.3869-2.9967,8.3052,1.7912,13.5626,6.631,15.56,14.9815,4.1446,17.3276-3.3666,41.2966-21.3285,50.8841a38.15,38.15,0,0,1-17.701,4.64c-10.448.1383-10.4476.1644-17.5123,8.9756,1.4008,1.41,2.8142,2.9423,4.3419,4.3508,9.3068,8.58,18.6616,17.1074,27.9539,25.7025,4.4322,4.1,8.3906,8.475,10,14.6195,3.6784,14.04-6.5824,24.716-20.5766,20.7386a27.3058,27.3058,0,0,1-11.4034-6.71c-9.5142-9.5535-18.4738-19.659-27.6536-29.5458-1.5705-1.6916-3.1675-3.3587-5.0923-5.3973-3.3374,3.5089-6.4032,6.737-9.4742,9.96q-11.3743,11.9379-22.7557,23.8693a25.9859,25.9859,0,0,1-12.2419,7.4c-13.8113,3.689-24.1436-6.2363-20.9641-20.1861a22.754,22.754,0,0,1,6.5537-11.5721c10.8122-10.3863,21.5879-20.8108,32.4569-31.1373A21.3937,21.3937,0,0,1-1401.7042,352.7538Zm92.4715-53.658a43.7167,43.7167,0,0,0-.0279-4.9887c-.84-7.2642-3.8522-10.3654-11.1541-11.03a48.7232,48.7232,0,0,0-10.4492.1261c-15.0287,1.9-26.4,11.44-29.363,24.6744a44.7123,44.7123,0,0,0-.6843,9.42c-.0425,6.7586-1.3235,12.7788-7.6027,16.7882-2.3471,1.4985-4.2354,3.728-6.2908,5.6687-18.3931,17.3672-36.8545,34.6635-55.0727,52.2125a23.203,23.203,0,0,0-5.4854,9.2349c-1.5067,4.5714,1.4067,7.6916,6.212,7.7957,5.0177.1086,8.3821-2.7978,11.5167-6.1159q27.0924-28.6779,54.15-57.3887c11.5072-12.1849,6.4583-10.1606,23.2287-10.842,8.9172-.3623,16.58-3.5976,22.2531-10.6423A39.24,39.24,0,0,0-1309.2327,299.0958Zm-63.631,70.8107c11.9571,12.5883,23.4372,24.7869,35.1014,36.8068a11.9852,11.9852,0,0,0,5.748,2.7591c5.5744,1.2893,9.4233-2.3447,7.9377-7.8506a19.1411,19.1411,0,0,0-4.7958-8.4408c-10.0222-9.7159-20.37-19.097-30.6282-28.568-1.4191-1.31-2.9987-2.4463-4.73-3.8457Zm-53.3479-39.4251a49.6079,49.6079,0,0,0,5.4013,1.2956q6.6651.8794,13.37,1.4452a9.67,9.67,0,0,1,8.132,4.8871,60.5929,60.5929,0,0,0,4.7444,6.0987l6.2055-4.7738c-3.081-2.38-5.2212-4.1892-7.5187-5.7692a9.393,9.393,0,0,1-4.3394-7.9232c-.1808-4.3074-.6726-8.6113-1.2411-12.8885a41.685,41.685,0,0,0-1.4539-5.57Z" transform="translate(1463.6511 -269.6992)"/></svg>