<?xml version="1.0" encoding="utf-8"?>
<!-- Generator: Adobe Illustrator 25.1.0, SVG Export Plug-In . SVG Version: 6.00 Build 0)  -->
<svg version="1.1" id="Layer_1" xmlns="http://www.w3.org/2000/svg" xmlns:xlink="http://www.w3.org/1999/xlink" x="0px" y="0px"
	 viewBox="0 0 460.4 229.21" style="enable-background:new 0 0 460.4 229.21;" xml:space="preserve">
<style type="text/css">
	.st0{clip-path:url(#SVGID_2_);fill:#5EB3E4;}
	.st1{fill:#FFFFFF;}
	.st2{fill:#0D0D0D;}
	.st3{fill:#4DAFD6;}
	.st4{clip-path:url(#SVGID_4_);fill:#4DAFD6;}
</style>
<g>
	<defs>
		<path id="SVGID_1_" d="M224.65,293.82c0.13,3.94-2.76,7.1-7.36,7.1c-4.08,0-6.97-3.16-6.97-7.1c0-4.08,3.02-7.23,7.23-7.23
			C221.89,286.59,224.65,289.75,224.65,293.82z"/>
	</defs>
	<use xlink:href="#SVGID_1_"  style="overflow:visible;fill:#5EB3E4;"/>
	<clipPath id="SVGID_2_">
		<use xlink:href="#SVGID_1_"  style="overflow:visible;"/>
	</clipPath>
	<path class="st0" d="M224.58,291.68c-0.08,0.06-0.16,0.12-0.28,0.13c0.21-0.2,0.2-0.59,0.18-1c0.03,0.01,0.04,0.04,0.06,0.05
		c-0.08-1.69-0.16-3.26-0.16-4.42c0-5.95,0-11.7,0-17.45c-0.44,0.03-0.67,0.32-0.99,0c0.06-0.3,0.59-0.17,0.99-0.15
		c0-0.81,0-1.63,0-2.45c-0.41,0.14-0.85,0.09-0.81-0.39c0.43-0.06,0.55-0.09,0.81-0.12c0-4.03,0-8.08,0-12.24
		c0-1.99,0.27-5.17,0.32-8.15c-0.04-0.05-0.07-0.11-0.04-0.13c0.02-0.01,0.03,0.01,0.05,0.01c0.02-1.31,0-2.58-0.11-3.69
		c-0.08-0.02-0.16-0.12-0.12-0.15c0.03-0.03,0.07,0,0.1,0.02c-0.06-0.56-0.15-1.06-0.26-1.53c0.09,0,0.18-0.01,0.27-0.01
		c0.05-0.98,0.09-1.99,0.11-2.98c-0.04-0.05-0.07-0.11-0.04-0.13c0.02-0.01,0.03,0.01,0.05,0.01c0.02-1.31,0-2.58-0.11-3.69
		c-0.08-0.02-0.16-0.12-0.12-0.15c0.03-0.03,0.07,0,0.1,0.02c-0.16-1.55-0.49-2.78-1.11-3.35c-0.16-0.15-0.45-0.28-0.82-0.4
		c0,0.02,0,0.04,0.01,0.06c-0.06,0-0.08-0.04-0.1-0.09c-1.22-0.35-3.29-0.54-5.34-0.58c0,0,0,0,0,0v0c-2.64-0.05-5.23,0.13-5.85,0.5
		c-0.18,0.17-1.45,0.75-1.45,0.92c-0.06,0.63-0.1,1.28-0.15,1.92c0.06,0,0.13,0,0.19-0.01c-0.01,0.1-0.1,0.13-0.2,0.14
		c-0.05,0.74-0.1,1.48-0.14,2.23c0.38,0.07,1,0.08,0.88,0.45c-0.4,0.04-0.66-0.14-0.89-0.22c-0.07,1.63-0.09,3.31-0.08,5.03
		c0.1,0,0.2,0.01,0.3,0.02c-0.02,0.27-0.04,0.55-0.06,0.82c0.06,0,0.13,0,0.19-0.01c-0.01,0.1-0.1,0.13-0.2,0.14
		c-0.05,0.74-0.1,1.48-0.14,2.23c0.38,0.07,1,0.08,0.88,0.45c-0.4,0.04-0.66-0.14-0.89-0.22c-0.2,4.84-0.04,10,0.12,15.88
		c0.02,0.05,0.03,0.11,0,0.15c0.09,3.5,0.18,7.23,0.18,11.34c0,4.42,0,9.85,0,15.94c0,0.66-0.01,1.34-0.02,2.02
		c0.39-0.04,0.16,0.24,0,0.2c-0.12,5.82-0.56,11.82,0.57,13.23c1.64,2.17,12.01,1.92,13.47,0
		C224.92,300.64,224.77,295.9,224.58,291.68z M224.3,267.16c-0.01,0.16-0.22,0.13-0.36,0.17
		C223.94,267.17,224.16,267.2,224.3,267.16z M223.03,264.66c-0.19-0.56,0.56-0.26,0.91-0.33
		C223.91,264.69,223.48,264.69,223.03,264.66z M220.85,266.66c0.04-0.14,0.18-0.17,0.18-0.33c0.12,0,0.24,0,0.36,0
		C221.48,266.68,221.13,266.65,220.85,266.66z M221.21,287.81c-0.23-0.04-0.18-0.33,0-0.33
		C221.48,287.55,221.19,287.62,221.21,287.81z M219.03,283.65c-0.09-0.09,0.13-0.21,0.18-0.17
		C219.31,283.56,219.08,283.69,219.03,283.65z M219.04,283.81c-0.09,0.09-0.23-0.12-0.18-0.16
		C218.95,283.56,219.09,283.77,219.04,283.81z M216.85,289.97c0-0.28,0-0.55,0-0.83c0.18,0,0.36,0,0.54,0
		C217.46,289.73,217.75,290.01,216.85,289.97z M218.13,288.98c-0.09,0.24-0.27,0.42-0.36,0.66
		C217.38,289.59,217.72,288.85,218.13,288.98z M215.59,282.81c0-0.17,0-0.33,0-0.5C216.11,282.41,215.52,284.05,215.59,282.81z
		 M215.59,281.81c0.18,0.01,0.14,0.21,0.18,0.33C215.59,282.14,215.63,281.94,215.59,281.81z M215.77,287.47
		c-0.12,0.52-0.48,0.22-0.91,0.17C214.83,287.28,215.5,287.57,215.77,287.47C215.8,286.98,216.52,287.63,215.77,287.47z
		 M216.13,278.15c0.18,0.17-0.28,0.44-0.18,0.17C215.6,278.3,216.03,278.06,216.13,278.15z M215.58,292.47
		c-0.03,0.19-0.18,0.09-0.18,0C215.44,292.28,215.58,292.38,215.58,292.47z M215.04,285.14c-0.05-0.27,0.17-0.29,0.18-0.5
		C215.57,284.58,215.49,285.4,215.04,285.14z M215.22,283.98c0.18,0,0.14,0.21,0.18,0.33C215.23,284.3,215.26,284.11,215.22,283.98z
		 M214.86,275.99c0.01-0.16,0.22-0.13,0.36-0.16C215.22,275.98,215,275.95,214.86,275.99z M215.59,283.65
		c-0.09,0.08-0.23-0.12-0.18-0.17C215.5,283.39,215.64,283.6,215.59,283.65z M213.83,259.9c-0.27-0.25,0.82-0.58,0.91-0.5
		C215.01,259.65,213.92,259.98,213.83,259.9z M214.13,274.65c-0.26-0.07,0.02-0.15,0-0.33
		C214.36,274.36,214.32,274.65,214.13,274.65z M212.5,247.68c0.09,0.09-0.13,0.21-0.18,0.17
		C212.22,247.76,212.45,247.63,212.5,247.68z M211.41,270.82c0.15,0.47-0.26,0.43-0.18,0.83
		C210.93,271.69,210.86,270.57,211.41,270.82z M211.23,241.02C211.27,240.52,211.98,241.18,211.23,241.02
		C210.68,241.64,210.62,240.52,211.23,241.02z M212.13,271.99c-0.51,0.14-0.47-0.23-0.91-0.17
		C211.2,271.55,212.41,271.49,212.13,271.99z M211.77,253.34c0.09,0.09-0.13,0.22-0.18,0.17
		C211.5,253.42,211.72,253.3,211.77,253.34z M211.59,243.02c-0.09-0.08,0.13-0.21,0.18-0.16
		C211.86,242.94,211.64,243.07,211.59,243.02z M219.58,275.15c-0.06-0.44,0.25-0.55,0.72-0.5
		C220.72,275.21,220.07,275.51,219.58,275.15z M220.49,274.15c0.2,0.03,0.1,0.16,0,0.16C220.28,274.29,220.39,274.15,220.49,274.15z
		 M219.1,269.58c0-0.5,0.46-0.25,0.46,0C219.56,270.08,219.1,269.83,219.1,269.58z M219.4,278.82c-0.27-0.08,0.02-0.15,0-0.33
		C219.63,278.52,219.58,278.81,219.4,278.82z M218.65,265.16c0.64,0.33,0.91,1,0.91,1.75C218.74,266.82,218.47,266.16,218.65,265.16
		z M218.85,269.16c-0.27-0.07,0.02-0.15,0-0.33C219.08,268.87,219.04,269.16,218.85,269.16z M219.04,275.48
		c-0.18,0-0.14-0.2-0.18-0.33C219.03,275.16,218.99,275.36,219.04,275.48z M218.85,279.48c0.09-0.09,0.23,0.12,0.18,0.17
		C218.94,279.74,218.8,279.53,218.85,279.48z M217.4,277.65c-0.09-0.09,0.13-0.21,0.18-0.16
		C217.68,277.57,217.45,277.7,217.4,277.65z M217.4,279.15c-0.39,0.08-0.35-0.24-0.37-0.5C217.26,278.72,217.41,278.86,217.4,279.15
		z M217.19,275.76c0-0.17,0.73-0.58,0.91-0.42C218.65,275.84,217.19,276.76,217.19,275.76z M217.4,275.15c0-0.11,0-0.22,0-0.33
		C217.91,274.79,217.35,276.06,217.4,275.15z M217.94,270.99c0.21,0.03,0.15,0.3,0.18,0.5
		C217.91,271.46,217.97,271.19,217.94,270.99z M218.49,276.82c-0.01,0.16-0.22,0.13-0.36,0.16
		C218.13,276.82,218.35,276.86,218.49,276.82z M217.19,258.56c0-0.92,2.37-0.5,1.46,0.42C218.2,259.4,217.19,258.73,217.19,258.56z
		 M217.58,262.83c-0.09-0.09,0.13-0.21,0.18-0.16C217.85,262.75,217.63,262.88,217.58,262.83z M217.58,266
		c-0.09,0.09-0.23-0.12-0.18-0.17C217.49,265.74,217.63,265.95,217.58,266z M214.13,248.85c-0.09-0.09,0.13-0.21,0.18-0.16
		C214.41,248.77,214.18,248.89,214.13,248.85z M214.31,250.84c-0.18,0-0.14-0.2-0.18-0.33
		C214.31,250.52,214.27,250.71,214.31,250.84z M214.5,243.19c0.09,0.09-0.13,0.21-0.18,0.17
		C214.22,243.27,214.45,243.14,214.5,243.19z M214.28,245.71c-0.09-0.08,0-0.75,0-0.92C214.83,242.53,216.01,247.21,214.28,245.71z
		 M214.5,247.35c-0.09,0.09-0.23-0.12-0.18-0.17C214.41,247.1,214.55,247.3,214.5,247.35z M214.31,244.52
		c-0.21-0.03-0.15-0.3-0.18-0.5C214.35,244.05,214.29,244.32,214.31,244.52z M213.95,243.02c-0.09-0.08,0.13-0.21,0.18-0.16
		C214.23,242.94,214,243.07,213.95,243.02z M214.31,247.85C214.1,247.86,214.2,247.6,214.31,247.85c0.54,0,1.09,0,1.63,0
		C215.96,248.1,214.02,248.32,214.31,247.85z M219.1,250.13c-0.27-0.25,0.36-0.58,0.46-0.42
		C219.83,249.88,219.19,250.22,219.1,250.13z M219.4,252.51c-0.22,0.24-0.62,0.32-1.09,0.33
		C218.13,252.24,219.02,252.61,219.4,252.51z M219.1,247.04c-0.27-0.25,0.36-0.58,0.46-0.5
		C219.83,246.79,219.19,247.13,219.1,247.04z M217.94,239.19c-0.24-0.06-0.29-0.29-0.54-0.33c0.06-0.22,0.32-0.26,0.36-0.5
		C218.08,238.51,218.23,238.94,217.94,239.19z M218.49,244.69c-0.41,0.38-1.26,0.55-0.72,1.33c-0.63,0.13-0.7-0.25-1.27-0.17
		c-0.05-0.29,0.58-0.89-0.18-0.83C216.93,244.22,217.21,244.78,218.49,244.69z M218.13,258.01c-0.09,0.09-0.23-0.12-0.18-0.17
		C218.04,257.75,218.18,257.96,218.13,258.01z M217.19,247.46c0.37,1.25-1,0.92-1,1.75C215.19,249.13,216.1,247.13,217.19,247.46z
		 M217.04,252.84c-0.22,0.24-0.62,0.31-1.09,0.33C216.11,252.89,216.52,252.81,217.04,252.84z M216.68,250.34
		c0.09-0.08,0.23,0.12,0.18,0.17C216.76,250.6,216.63,250.39,216.68,250.34z M215.95,245.18c-0.09-0.08,0.13-0.21,0.18-0.17
		C216.22,245.1,216,245.23,215.95,245.18z M215.4,249.35c-0.18,0-0.14-0.2-0.18-0.33C215.4,249.02,215.36,249.22,215.4,249.35z
		 M216.13,251.51c-0.09,0.43-1.34,0.84-1.27,0C215.28,251.51,215.71,251.51,216.13,251.51z M219.03,262.5
		c-0.01,0.16-0.22,0.13-0.36,0.17C218.67,262.5,218.89,262.54,219.03,262.5z M219.22,251.85c0-0.11,0-0.22,0-0.34
		c0.12,0,0.24,0,0.36,0c0,0.11,0,0.22,0,0.34C219.46,251.85,219.34,251.85,219.22,251.85z M219.94,257.51
		c0.19,0.17-0.28,0.44-0.18,0.17C219.41,257.65,219.84,257.41,219.94,257.51z M220.56,258.56c-0.27-0.25,0.36-0.58,0.46-0.5
		C221.29,258.31,220.65,258.65,220.56,258.56z M220.56,260.73c-0.09,0.75-0.54,0-0.45-0.42
		C220.2,259.56,220.65,260.31,220.56,260.73z M220.49,239.69c-0.09-0.09,0.13-0.21,0.18-0.17
		C220.76,239.61,220.54,239.73,220.49,239.69z M220.3,239.52c-0.03,0.14,0.07,0.16,0.18,0.17c-0.18,0.51-0.49-0.19-0.73-0.17
		c-0.03-0.36,0.64-0.07,0.91-0.17C220.66,239.52,220.44,239.49,220.3,239.52z M220.49,244.85c-0.18,0.34-0.7,0.36-1.27,0.33
		C219.24,244.71,219.97,244.88,220.49,244.85z M213.59,259.5c0,0.16-0.22,0.13-0.36,0.16C213.23,259.51,213.45,259.54,213.59,259.5z
		 M213.23,253.18c0-0.16,0.22-0.13,0.36-0.17C213.58,253.17,213.36,253.14,213.23,253.18z M213.83,270.92c0,0.5-0.55,0.25-0.55,0
		C213.28,270.41,213.83,270.66,213.83,270.92z M213.41,247.68c0.03-0.14-0.07-0.16-0.18-0.16c-0.07-0.32,0.83-0.24,0.55,0.16
		C213.65,247.68,213.53,247.68,213.41,247.68z M213.23,272.99c0.09-0.09,0.23,0.12,0.18,0.17
		C213.31,273.24,213.18,273.04,213.23,272.99z M213.83,275.34c0.18,0.25-0.36,0.58-0.55,0.42
		C213.1,275.59,213.64,275.26,213.83,275.34z M216.19,259.9c-0.18-0.25,0.82-0.58,1-0.5C217.38,259.65,216.37,259.98,216.19,259.9z
		 M217.22,262.67c-0.02,0.12-0.15,0.14-0.29,0.15c0.08,0.02,0.14,0.15,0.1,0.18c-0.09,0.08-0.23-0.12-0.18-0.17
		c0.02-0.02,0.04-0.02,0.07-0.02c-0.08,0-0.17,0.01-0.25,0.01C216.7,262.64,217.01,262.69,217.22,262.67z M217.22,266.99
		c-0.09,0.09-0.23-0.12-0.18-0.16C217.13,266.74,217.27,266.95,217.22,266.99z M216.86,265.33c-0.18-0.01-0.14-0.21-0.18-0.33
		C216.85,265,216.82,265.2,216.86,265.33z M217.04,268.83c0.23,0.23,0.86,0.1,1.09,0.33c-0.01,0.51-1.19,0.39-1.45,0.17
		C216.79,269.16,217.09,269.15,217.04,268.83z M217.04,276.15c0.09-0.09,0.23,0.12,0.18,0.16
		C217.12,276.4,216.99,276.2,217.04,276.15z M217.65,280.68c-0.18,0.67-0.46-0.09-1,0C216.83,280.1,217.65,280.18,217.65,280.68z
		 M217.19,284.19c0.46-2.34,1.64,2.42,0,0.92C217.1,285.02,217.19,284.36,217.19,284.19z M219.56,279.35c0-0.17,0.73-0.67,1-0.42
		C221.02,279.35,219.56,280.26,219.56,279.35z M220.3,266.33c0.15,0.03,0.18,0.17,0.36,0.17
		C220.57,266.89,219.81,266.6,220.3,266.33z M220.85,276.99c0.1,0.09-0.13,0.21-0.18,0.16C220.57,277.06,220.8,276.94,220.85,276.99
		z M221.03,265c0.03-0.19,0.33-0.14,0.55-0.16C221.55,265.03,221.24,264.97,221.03,265z M223.75,246.18c0.04-0.19,0.18-0.09,0.18,0
		C223.9,246.37,223.75,246.28,223.75,246.18z M224.12,256.17c-0.21-0.03-0.15-0.3-0.18-0.5
		C224.15,255.7,224.09,255.98,224.12,256.17z M224.12,264.5c-0.1,0.09-0.23-0.12-0.18-0.16c0,0,0,0,0,0v0
		C224.03,264.24,224.17,264.45,224.12,264.5z M224.3,255.34c-0.09,0.09-0.23-0.12-0.18-0.17
		C224.21,255.09,224.35,255.3,224.3,255.34z M222.48,230.23c0.51-0.03-0.05,1.25,0,0.33V230.23z M220.67,230.9
		c0,0.16-0.22,0.13-0.36,0.17c-0.03,0.14,0.07,0.16,0.18,0.17c-0.18,0.51-0.49-0.19-0.73-0.17
		C219.73,230.7,220.4,230.99,220.67,230.9z M220.49,236.39c-0.18,0.34-0.7,0.36-1.27,0.33
		C219.24,236.25,219.97,236.42,220.49,236.39z M217.77,229.9c0.32,0.15,0.47,0.58,0.18,0.83c-0.24-0.06-0.29-0.29-0.54-0.33
		C217.46,230.18,217.72,230.13,217.77,229.9z M218.49,236.22c-0.34,0.31-0.96,0.49-0.88,0.98c-0.13,0-0.26-0.01-0.39-0.01
		c0,0,0,0,0,0v0c-0.23,0-0.46,0-0.69-0.01c0.11-0.3,0.39-0.68-0.22-0.63C216.93,235.76,217.21,236.32,218.49,236.22z M215.16,237.2
		c-0.3,0.01-0.6,0.02-0.88,0.04c-0.08-0.1,0-0.74,0-0.91C214.65,234.81,215.31,236.44,215.16,237.2z M214.31,236.06
		c-0.21-0.03-0.15-0.3-0.18-0.5C214.35,235.58,214.29,235.86,214.31,236.06z M210.86,245.68c-0.01,0.16-0.22,0.13-0.36,0.17
		C210.51,245.69,210.72,245.72,210.86,245.68z M210.14,256.67c0.27,0.25,0.29,0.73,0.36,1.17
		C210.08,257.71,209.77,257.03,210.14,256.67z M210.68,252.68c-0.06,0-0.12,0-0.18,0c-0.01,0.16-0.22,0.13-0.36,0.17
		c0-0.16,0.21-0.13,0.36-0.17c-0.06,0-0.12,0-0.17,0c-0.06-0.34,0.04-0.52,0.36-0.5C210.68,252.34,210.68,252.51,210.68,252.68z
		 M210.68,251.34c0-0.11,0-0.22,0-0.33C211.19,250.98,210.64,252.25,210.68,251.34z M210.87,272.99c0.09-0.09,0.23,0.12,0.18,0.17
		C210.95,273.24,210.82,273.04,210.87,272.99z M211.05,292.8c-0.09-0.09,0.13-0.21,0.18-0.16
		C211.32,292.72,211.1,292.85,211.05,292.8z M211.23,285.31c0.03-0.19,0.18-0.09,0.18,0C211.38,285.5,211.23,285.4,211.23,285.31z
		 M211.41,279.81c-0.1,0.09-0.24-0.12-0.18-0.17C211.32,279.56,211.46,279.77,211.41,279.81z M211.59,283.81
		c-0.09-0.09,0.13-0.21,0.18-0.16C211.86,283.73,211.64,283.86,211.59,283.81z M211.41,278.15c0.03-0.2,0.33-0.14,0.55-0.17
		C211.93,278.18,211.62,278.12,211.41,278.15z M212.14,298.96c-0.03,0.45-0.06,1.16-0.18,0.5c-0.03-0.18,0.02-0.62,0-1.17
		C212.55,298.38,212.15,298.71,212.14,298.96z M212.13,294.3c-0.09-0.09,0.13-0.21,0.18-0.16
		C212.41,294.22,212.19,294.35,212.13,294.3z M212.5,290.97c0.18,0.01,0.14,0.2,0.18,0.33C212.5,291.3,212.54,291.1,212.5,290.97z
		 M212.68,252.68c-0.48,0.05-0.78-0.06-0.73-0.5c0.15,0.03,0.17-0.07,0.18-0.17C212.62,251.96,212.73,252.24,212.68,252.68z
		 M213.05,297.96c0.18,0.01,0.14,0.2,0.18,0.33C213.05,298.29,213.08,298.09,213.05,297.96z M213.05,295.63
		c0.18,0.01,0.14,0.21,0.18,0.33C213.05,295.96,213.08,295.76,213.05,295.63z M213.28,288.19
		C213.28,287.69,214.01,287.94,213.28,288.19C213.37,288.69,212.64,288.45,213.28,288.19z M213.77,293.13c0.12,0,0.24,0,0.36,0
		C214.17,293.6,212.78,293.09,213.77,293.13z M213.95,278.82c0.08-0.24,0.16,0.02,0.36,0C214.27,279.03,213.95,278.98,213.95,278.82
		z M213.95,278.15c-0.55-0.01-0.43-1.09-0.18-1.33c0.18,0.11,0.19,0.38,0.54,0.33C214.06,277.36,214.2,277.93,213.95,278.15z
		 M213.59,276.32c-0.05-0.44,0.38-0.43,0.73-0.5C214.16,276.06,214.04,276.35,213.59,276.32z M214.68,298.3
		c-0.09,0.09-0.23-0.12-0.18-0.17C214.59,298.04,214.73,298.25,214.68,298.3z M214.86,297.63c-0.09,0.09-0.23-0.12-0.18-0.17
		C214.77,297.38,214.91,297.59,214.86,297.63z M215.58,293.64C214.42,293.83,215.18,293.13,215.58,293.64
		C216.34,293.48,215.62,294.13,215.58,293.64z M215.74,292.2c-0.27-0.25,0.36-0.58,0.46-0.5
		C216.46,291.95,215.83,292.28,215.74,292.2z M215.74,274c-0.55-0.5,0.36-1.17,0.46-1.34C217.65,271.33,216.37,274.75,215.74,274z
		 M216.31,277.32c-0.09-0.09,0.13-0.21,0.18-0.17C216.59,277.24,216.36,277.36,216.31,277.32z M217.04,301.46
		c-0.32-0.12-0.02-0.3,0-0.5C217.36,301.08,217.06,301.26,217.04,301.46z M216.67,293.13c-0.44-0.36,1.38-0.09,1.81,0
		C218.04,293.65,217.38,292.93,216.67,293.13z M218.49,284.81C218.27,284.83,218.38,284.57,218.49,284.81
		c0.13,0.04,0.18,0.12,0.2,0.19c0.01-0.13,0.02-0.26-0.01-0.35c0.54,0.28,0.2,0.6,0.18,1.16c-0.26-0.05-0.22-0.36-0.18-0.66
		C218.59,285.3,218.37,285.34,218.49,284.81z M219.04,294.63c0-0.28,0-0.55,0-0.83C219.45,293.92,219.87,294.7,219.04,294.63z
		 M218.65,292.2c0-0.17,0.73-0.67,0.91-0.5C220.11,292.2,218.65,293.12,218.65,292.2z M220.3,297.96c0.06,0.39-0.03,0.64-0.18,0.83
		C219.58,298.78,219.64,297.8,220.3,297.96z M220.3,300.79c0.18,0,0.14,0.2,0.18,0.33C220.31,301.12,220.34,300.92,220.3,300.79z
		 M220.49,297.3c0.18,0.01,0.14,0.2,0.18,0.33C220.49,297.63,220.52,297.43,220.49,297.3z M220.3,295.13
		c0.38-0.07,0.48,0.11,0.73,0.16C221.09,295.6,220.01,295.6,220.3,295.13z M221.03,294.47c0.18,0.01,0.14,0.21,0.18,0.33
		C221.04,294.79,221.07,294.6,221.03,294.47z M221.39,292.97c0,0.73-0.31,0.03-0.18-0.33c-0.16-0.29-0.06-0.83-0.36-1
		c0.14-0.3,0.33-0.02,0.55,0C221.39,292.08,221.39,292.52,221.39,292.97z M221.58,290.47c-0.09,0.09-0.23-0.12-0.18-0.17
		C221.49,290.22,221.63,290.43,221.58,290.47z M221.94,256.01c0.18,0,0.14,0.2,0.18,0.33C221.94,256.33,221.98,256.14,221.94,256.01
		z M222.12,241.36c-0.09,0.08-0.23-0.12-0.18-0.17C222.03,241.1,222.17,241.31,222.12,241.36z M222.12,240.36
		c-0.09,0.09-0.23-0.12-0.18-0.17C222.03,240.1,222.17,240.31,222.12,240.36z M222.3,257.17c0-0.11,0-0.22,0-0.33
		C222.81,256.81,222.25,258.08,222.3,257.17z M222.49,239.26c0.03,0.02,0.07,0.04,0.1,0.05
		C222.55,239.37,222.51,239.37,222.49,239.26z M222.84,266.5C222.88,266,223.6,266.66,222.84,266.5
		C222.86,266.7,222.58,266.6,222.84,266.5z M223.39,285.81c-0.38-0.1-0.69-0.26-0.54-0.83
		C223.06,285.23,223.37,285.39,223.39,285.81C223.61,285.79,223.5,286.05,223.39,285.81z M224.48,290.31
		c-0.09,0.08-0.23-0.12-0.18-0.17C224.39,290.05,224.53,290.26,224.48,290.31z M224.12,271.16c0.09-0.08,0.23,0.12,0.18,0.17
		C224.2,271.41,224.07,271.2,224.12,271.16z M223.93,296.3c0.05-0.21,0.36-0.17,0.36,0C224.21,296.54,224.14,296.28,223.93,296.3z"
		/>
</g>
<g>
	<path class="st1" d="M30.41,204.81c-4.22,0-7.51,3.26-7.51,7.41c0,4.19,3.29,7.45,7.51,7.45c2.14,0,4.41-0.99,6.07-2.62l2.52,2.81
		c-2.3,2.33-5.59,3.83-8.82,3.83c-6.58,0-11.66-4.95-11.66-11.41c0-6.39,5.14-11.28,11.82-11.28c3.2,0,6.46,1.37,8.63,3.58
		l-2.49,3.13C34.88,205.93,32.61,204.81,30.41,204.81z"/>
	<path class="st1" d="M53.18,201.14v18.5h9.65v3.87H48.9v-22.37H53.18z"/>
	<path class="st1" d="M76.86,201.14v22.37h-4.28v-22.37H76.86z"/>
	<path class="st1" d="M92.8,201.14l11.54,15.31v-15.31h4.15v22.37h-4.06l-11.5-15.28v15.28h-4.19v-22.37H92.8z"/>
	<path class="st1" d="M124.66,201.14v22.37h-4.28v-22.37H124.66z"/>
	<path class="st1" d="M146.67,204.81c-4.22,0-7.51,3.26-7.51,7.41c0,4.19,3.29,7.45,7.51,7.45c2.14,0,4.41-0.99,6.07-2.62l2.52,2.81
		c-2.3,2.33-5.59,3.83-8.82,3.83c-6.58,0-11.66-4.95-11.66-11.41c0-6.39,5.14-11.28,11.82-11.28c3.2,0,6.46,1.37,8.63,3.58
		l-2.49,3.13C151.14,205.93,148.88,204.81,146.67,204.81z"/>
	<path class="st1" d="M179.55,218.78h-10.93l-1.98,4.73h-4.44l9.81-22.37h4.44l9.68,22.37h-4.6L179.55,218.78z M178.01,215.1
		l-3.9-9.4l-3.96,9.4H178.01z"/>
	<path class="st1" d="M199.51,201.14v18.5h9.65v3.87h-13.93v-22.37H199.51z"/>
	<path class="st1" d="M248.88,223.51l-3.87-6.62c-0.26,0.03-0.51,0.03-0.8,0.03h-5.05v6.58h-4.28v-22.37h9.33
		c5.78,0,9.08,2.78,9.08,7.7c0,3.51-1.57,6.04-4.44,7.25l4.92,7.41H248.88z M239.16,213.15h5.05c3.2,0,4.98-1.37,4.98-4.19
		c0-2.75-1.79-4.09-4.98-4.09h-5.05V213.15z"/>
	<path class="st1" d="M280.76,201.14v3.74h-12.11v5.53h10.86v3.74h-10.86v5.62h12.5v3.74h-16.78v-22.37H280.76z"/>
	<path class="st1" d="M299.23,204.85c-2.01,0-3.32,0.74-3.32,2.11c0,4.54,12.02,2.08,11.98,10.1c0,4.19-3.64,6.62-8.56,6.62
		c-3.58,0-7.06-1.44-9.46-3.58l1.79-3.61c2.3,2.05,5.34,3.29,7.73,3.29s3.83-0.89,3.83-2.46c0-4.67-12.02-2.01-12.02-9.97
		c0-3.9,3.36-6.39,8.37-6.39c2.97,0,5.94,0.96,8.09,2.37l-1.73,3.71C303.54,205.58,300.96,204.85,299.23,204.85z"/>
	<path class="st1" d="M334.73,201.14v3.74h-12.11v5.53h10.86v3.74h-10.86v5.62h12.5v3.74h-16.78v-22.37H334.73z"/>
	<path class="st1" d="M360.42,218.78h-10.93l-1.98,4.73h-4.44l9.81-22.37h4.44l9.68,22.37h-4.6L360.42,218.78z M358.88,215.1
		l-3.9-9.4l-3.96,9.4H358.88z"/>
	<path class="st1" d="M390.1,223.51l-3.87-6.62c-0.26,0.03-0.51,0.03-0.8,0.03h-5.05v6.58h-4.28v-22.37h9.33
		c5.78,0,9.08,2.78,9.08,7.7c0,3.51-1.57,6.04-4.44,7.25l4.92,7.41H390.1z M380.38,213.15h5.05c3.2,0,4.98-1.37,4.98-4.19
		c0-2.75-1.79-4.09-4.98-4.09h-5.05V213.15z"/>
	<path class="st1" d="M415.72,204.81c-4.22,0-7.51,3.26-7.51,7.41c0,4.19,3.29,7.45,7.51,7.45c2.14,0,4.41-0.99,6.07-2.62l2.53,2.81
		c-2.3,2.33-5.59,3.83-8.82,3.83c-6.58,0-11.66-4.95-11.66-11.41c0-6.39,5.14-11.28,11.82-11.28c3.2,0,6.46,1.37,8.63,3.58
		l-2.49,3.13C420.19,205.93,417.92,204.81,415.72,204.81z"/>
	<path class="st1" d="M438.5,201.14v9.56h11.15v-9.56h4.28v22.37h-4.28v-9.08H438.5v9.08h-4.28v-22.37H438.5z"/>
</g>
<path class="st2" d="M224.28,108.12c-0.08,0.11,0.14,0.6,0.3,0.4C224.66,108.4,224.43,107.92,224.28,108.12"/>
<path class="st2" d="M230.51,54.64c-0.06,0-0.11,0-0.17,0c-0.08,0.1-0.13,0.27-0.16,0.45C230.37,55.06,230.53,54.93,230.51,54.64"/>
<polyline class="st2" points="240.9,78.24 240.89,78.24 240.9,78.24 "/>
<path class="st3" d="M141.61,170.79v-62.22c0-2.45-0.57-4.4-1.72-5.86c-1.15-1.45-2.64-2.18-4.48-2.18h-7.35v70.26H111.3V10.07
	h24.11c6.89,0,12.43,2.18,16.65,6.54c4.21,4.36,6.31,10.14,6.31,17.34v31.23c0,11.02-2.22,19.75-6.66,26.18
	c4.44,4.13,6.66,9.64,6.66,16.53v62.91H141.61z M135.41,85.61c1.84,0,3.33-1.87,4.48-5.63c1.15-3.75,1.72-8.69,1.72-14.81V34.63
	c0-2.91-0.57-5.24-1.72-7c-1.15-1.76-2.64-2.64-4.48-2.64h-7.35v60.62H135.41z"/>
<path class="st3" d="M344.26,84.69c5.82,4.13,8.72,10.18,8.72,18.14v43.86c0,7.2-2.11,13.01-6.31,17.45
	c-4.21,4.44-9.76,6.66-16.65,6.66h-24.11V10.07h22.27c7.04,0,12.66,2.18,16.88,6.54c4.21,4.36,6.31,10.14,6.31,17.34v31.23
	C351.38,73.44,349.01,79.95,344.26,84.69z M328.19,80.56c1.99,0,3.56-0.99,4.71-2.99c1.15-1.99,1.72-4.59,1.72-7.81V34.63
	c0-2.91-0.57-5.24-1.72-7c-1.15-1.76-2.72-2.64-4.71-2.64h-5.51v55.57H328.19z M322.68,155.87h7.35c1.22,0,2.3-0.38,3.21-1.15
	c0.92-0.76,1.64-1.84,2.18-3.21c0.53-1.38,0.8-2.99,0.8-4.82v-43.17c0-2.45-0.57-4.4-1.72-5.85c-1.15-1.45-2.64-2.18-4.48-2.18
	h-7.35V155.87z"/>
<path class="st3" d="M455.35,155.18v15.61h-36.97V10.07h35.82v15.61h-19.06v53.5h13.32v15.61h-13.32v60.39H455.35z"/>
<path class="st3" d="M264.37,162.44c0.06-2.83-0.09-5.67,0.05-8.48c0.11-2.28-0.64-2.37-1.83-2.37
	c-10.96,0.05-21.92,0.03-32.88,0.03c-9.77,0-19.55-0.02-29.32,0.02c-2.03,0.01-4.07,0.26-6.1,0.4c-0.05,3.05-0.16,6.1-0.15,9.15
	c0,1.2,0.01,2.07,0.08,2.71c0.03,1.16,0.06,2.32,0.08,3.49c2.03,0.14,4.07,0.39,6.1,0.4c9.77,0.04,19.55,0.02,29.32,0.02
	c10.96,0,21.92-0.02,32.88,0.03c1.19,0.01,1.94-0.09,1.83-2.37C264.37,164.46,264.37,163.45,264.37,162.44z M261.27,155.6
	c0.15,0.33,0.44,0.69,0.41,1c-0.04,0.56-0.27,1.1-0.41,1.65c-0.15-0.33-0.3-0.67-0.52-1.16
	C260.91,156.64,261.09,156.12,261.27,155.6z M256.82,159.56c0.11,0.29,0.21,0.57,0.32,0.85c-0.12,0.18-0.22,0.32-0.32,0.47
	c-0.1-0.29-0.23-0.58-0.28-0.89C256.53,159.89,256.72,159.71,256.82,159.56z M250.17,160.93c0.2-0.08,0.48,0.26,0.73,0.41
	c-0.13,0.47-0.27,0.94-0.33,1.14c-0.68-0.42-0.92-0.57-1.17-0.72C249.66,161.47,249.89,161.05,250.17,160.93z M242.59,155.6
	c0.1,0.29,0.23,0.58,0.28,0.89c0.02,0.11-0.18,0.29-0.28,0.43c-0.11-0.29-0.21-0.57-0.32-0.85
	C242.39,155.89,242.49,155.74,242.59,155.6z M231.25,156.96c0.38,0.06,0.74,0.4,1.11,0.62c-0.22,0.22-0.45,0.44-0.78,0.77
	c-0.3-0.23-0.65-0.5-1-0.77C230.81,157.36,231.05,156.93,231.25,156.96z M221.99,154.48c0.31,0.2,0.63,0.4,0.77,0.49
	c-0.28,1.01-0.38,1.37-0.49,1.74c-0.2-0.38-0.48-0.72-0.56-1.15C221.66,155.26,221.89,154.85,221.99,154.48z M218.45,158.43
	c0.19,0.15,0.38,0.31,0.57,0.47c-0.1,0.15-0.22,0.44-0.29,0.41c-0.21-0.07-0.4-0.27-0.6-0.41
	C218.23,158.76,218.33,158.61,218.45,158.43z M215.17,158.49c0.07-0.02,0.19,0.27,0.29,0.41c-0.2,0.15-0.39,0.34-0.6,0.41
	c-0.07,0.02-0.19-0.27-0.29-0.41C214.77,158.76,214.96,158.56,215.17,158.49z M210.57,155.6c0.1,0.15,0.2,0.29,0.32,0.47
	c-0.1,0.28-0.21,0.56-0.32,0.85c-0.1-0.15-0.29-0.33-0.28-0.43C210.34,156.17,210.47,155.89,210.57,155.6z M209.83,159.81
	c0.07-0.02,0.19,0.27,0.29,0.41c-0.19,0.16-0.39,0.32-0.57,0.47c-0.12-0.18-0.22-0.32-0.32-0.47
	C209.43,160.08,209.62,159.88,209.83,159.81z M205.2,156.96c0.11-0.01,0.24,0.52,0.44,1.01c-0.48,0.1-0.88,0.26-1.27,0.23
	c-0.12-0.01-0.22-0.54-0.34-0.83C204.43,157.22,204.81,157,205.2,156.96z M197.23,155.6c0.1,0.15,0.2,0.29,0.32,0.47
	c-0.1,0.28-0.21,0.56-0.32,0.85c-0.1-0.15-0.29-0.33-0.28-0.43C197,156.17,197.13,155.89,197.23,155.6z"/>
<path class="st3" d="M36.95,170.79H20.19V24.99H3.2V10.07h50.74v14.92H36.95V170.79z"/>
<path class="st1" d="M239.36,118.96c-0.09,0.08-0.2,0.15-0.35,0.16c0.26-0.24,0.26-0.74,0.23-1.25c0.04,0.01,0.05,0.05,0.08,0.07
	c-0.1-2.12-0.2-4.09-0.2-5.54c0-7.46,0-14.66,0-21.87c-0.55,0.04-0.83,0.4-1.25,0.01c0.08-0.37,0.74-0.21,1.25-0.19
	c0-1.02,0-2.05,0-3.07c-0.51,0.17-1.07,0.11-1.01-0.49c0.54-0.08,0.69-0.12,1.01-0.15c0-5.05,0-10.12,0-15.33
	c0-2.5,0.34-6.48,0.4-10.21c-0.06-0.06-0.09-0.14-0.06-0.17c0.02-0.02,0.04,0.01,0.06,0.01c0.03-1.64,0-3.23-0.14-4.62
	c-0.1-0.02-0.2-0.15-0.15-0.19c0.04-0.04,0.09,0,0.13,0.03c-0.07-0.71-0.19-1.33-0.32-1.91c0.11,0,0.23-0.01,0.34-0.02
	c0.06-1.23,0.11-2.49,0.13-3.74c-0.06-0.06-0.09-0.14-0.06-0.17c0.02-0.02,0.04,0.01,0.06,0.01c0.03-1.64,0-3.23-0.14-4.62
	c-0.1-0.02-0.2-0.15-0.15-0.19c0.04-0.04,0.09,0,0.13,0.03c-0.2-1.94-0.61-3.48-1.39-4.2c-0.21-0.19-0.56-0.35-1.03-0.5
	c0,0.02,0.01,0.05,0.01,0.07c-0.08,0-0.1-0.06-0.13-0.11c-1.52-0.44-4.12-0.67-6.69-0.73c0,0,0,0,0,0v0
	c-3.31-0.06-6.55,0.17-7.33,0.63c-0.23,0.21-1.82,0.94-1.82,1.15c-0.08,0.79-0.12,1.6-0.18,2.41c0.08,0,0.16,0,0.24-0.01
	c-0.02,0.12-0.12,0.16-0.25,0.18c-0.07,0.92-0.13,1.86-0.17,2.8c0.48,0.08,1.25,0.1,1.1,0.57c-0.5,0.05-0.83-0.17-1.11-0.28
	c-0.08,2.04-0.11,4.15-0.11,6.3c0.13,0,0.25,0.01,0.38,0.02c-0.02,0.34-0.05,0.68-0.08,1.03c0.08,0,0.16,0,0.24-0.01
	c-0.02,0.12-0.12,0.16-0.25,0.18c-0.07,0.92-0.13,1.86-0.17,2.8c0.48,0.08,1.25,0.1,1.1,0.57c-0.5,0.05-0.83-0.17-1.11-0.28
	c-0.25,6.07-0.05,12.53,0.14,19.89c0.03,0.07,0.03,0.13,0,0.19c0.12,4.38,0.23,9.05,0.23,14.2c0,5.54,0,12.34,0,19.97
	c0,0.83-0.01,1.68-0.03,2.53c0.49-0.05,0.2,0.3-0.01,0.24c-0.14,7.29-0.7,14.81,0.72,16.57c2.05,2.72,15.05,2.41,16.87,0
	C239.78,130.19,239.6,124.25,239.36,118.96z M239,88.25c-0.01,0.2-0.28,0.16-0.45,0.21C238.55,88.25,238.83,88.29,239,88.25z
	 M237.41,85.12c-0.24-0.7,0.7-0.33,1.13-0.42C238.52,85.16,237.97,85.15,237.41,85.12z M234.68,87.62c0.05-0.17,0.23-0.21,0.23-0.42
	c0.15,0,0.3,0,0.46,0C235.47,87.65,235.04,87.6,234.68,87.62z M235.14,114.11c-0.28-0.05-0.23-0.41,0-0.42
	C235.47,113.79,235.12,113.88,235.14,114.11z M232.41,108.9c-0.12-0.11,0.16-0.27,0.23-0.21
	C232.75,108.8,232.47,108.96,232.41,108.9z M232.41,109.11c-0.12,0.11-0.29-0.15-0.23-0.21
	C232.3,108.79,232.47,109.05,232.41,109.11z M230.67,118.47c-0.57,0.32-1.03,0.63-1.25,0C229.65,117.74,230.67,117.94,230.67,118.47
	z M229.68,116.82c0-0.35,0-0.69,0-1.04c0.23,0,0.46,0,0.68,0C230.43,116.52,230.8,116.87,229.68,116.82z M231.27,115.58
	c-0.12,0.31-0.34,0.52-0.45,0.83C230.34,116.34,230.77,115.42,231.27,115.58z M228.09,107.85c0-0.21,0-0.42,0-0.63
	C228.74,107.35,228.01,109.4,228.09,107.85z M228.09,106.6c0.22,0.01,0.18,0.26,0.23,0.42C228.1,107.02,228.14,106.76,228.09,106.6z
	 M228.31,113.69c-0.16,0.66-0.6,0.27-1.14,0.21C227.14,113.45,227.98,113.81,228.31,113.69
	C228.36,113.07,229.26,113.89,228.31,113.69z M228.77,102.02c0.23,0.21-0.35,0.55-0.23,0.21
	C228.11,102.2,228.64,101.9,228.77,102.02z M228.09,119.95c-0.04,0.23-0.23,0.11-0.23,0C227.91,119.72,228.09,119.84,228.09,119.95z
	 M227.41,110.77c-0.07-0.34,0.22-0.36,0.23-0.62C228.07,110.07,227.96,111.1,227.41,110.77z M227.63,109.31
	c0.22,0,0.17,0.26,0.23,0.42C227.64,109.72,227.68,109.48,227.63,109.31z M227.18,99.3c0.01-0.2,0.28-0.16,0.45-0.21
	C227.63,99.3,227.36,99.26,227.18,99.3z M228.09,108.9c-0.12,0.1-0.29-0.15-0.23-0.21C227.98,108.58,228.15,108.84,228.09,108.9z
	 M225.89,79.14c-0.34-0.31,1.02-0.73,1.14-0.63C227.37,78.83,226,79.25,225.89,79.14z M226.27,97.63c-0.33-0.09,0.02-0.18,0-0.42
	C226.55,97.27,226.5,97.63,226.27,97.63z M224.22,63.84c0.12,0.11-0.17,0.27-0.23,0.21C223.88,63.94,224.16,63.78,224.22,63.84z
	 M222.86,92.83c0.19,0.59-0.32,0.54-0.23,1.04C222.26,93.91,222.17,92.52,222.86,92.83z M222.63,55.5
	C222.68,54.87,223.57,55.7,222.63,55.5C221.94,56.27,221.86,54.86,222.63,55.5z M223.77,94.3c-0.64,0.17-0.59-0.29-1.14-0.21
	C222.59,93.75,224.12,93.67,223.77,94.3z M223.31,70.93c0.11,0.11-0.17,0.27-0.23,0.21C222.96,71.03,223.25,70.88,223.31,70.93z
	 M223.08,58c-0.12-0.11,0.17-0.26,0.23-0.21C223.43,57.9,223.14,58.06,223.08,58z M233.09,98.26c-0.07-0.55,0.31-0.69,0.91-0.63
	C234.53,98.33,233.7,98.71,233.09,98.26z M234.23,97.01c0.26,0.04,0.12,0.21,0,0.21C233.97,97.18,234.1,97.01,234.23,97.01z
	 M232.5,91.28c0-0.63,0.57-0.31,0.57,0C233.07,91.9,232.5,91.59,232.5,91.28z M232.86,102.85c-0.33-0.09,0.03-0.18,0-0.42
	C233.15,102.48,233.09,102.84,232.86,102.85z M231.93,85.73c0.8,0.42,1.14,1.25,1.14,2.2C232.04,87.82,231.7,86.99,231.93,85.73z
	 M232.18,90.75c-0.33-0.09,0.02-0.18,0-0.42C232.47,90.38,232.41,90.75,232.18,90.75z M232.41,98.67c-0.22,0-0.18-0.25-0.23-0.41
	C232.4,98.26,232.36,98.51,232.41,98.67z M232.18,103.68c0.12-0.11,0.29,0.15,0.23,0.21C232.29,104,232.12,103.74,232.18,103.68z
	 M230.36,101.39c-0.12-0.11,0.16-0.26,0.23-0.21C230.71,101.29,230.42,101.44,230.36,101.39z M230.36,103.27
	c-0.49,0.1-0.44-0.3-0.46-0.63C230.19,102.73,230.37,102.91,230.36,103.27z M230.1,99.01c0-0.21,0.91-0.73,1.14-0.52
	C231.93,99.12,230.1,100.27,230.1,99.01z M230.36,98.26c0-0.14,0-0.28,0-0.42C231,97.8,230.3,99.4,230.36,98.26z M231.04,93.04
	c0.26,0.03,0.19,0.38,0.23,0.63C231,93.64,231.08,93.29,231.04,93.04z M231.73,100.35c-0.01,0.2-0.27,0.16-0.45,0.21
	C231.28,100.35,231.55,100.39,231.73,100.35z M230.1,77.47c0-1.15,2.97-0.63,1.83,0.52C231.36,78.52,230.1,77.68,230.1,77.47z
	 M230.59,82.82c-0.12-0.11,0.17-0.26,0.23-0.21C230.93,82.72,230.65,82.88,230.59,82.82z M230.59,86.79
	c-0.12,0.11-0.29-0.15-0.22-0.21C230.48,86.47,230.65,86.73,230.59,86.79z M226.27,65.3c-0.12-0.11,0.16-0.26,0.23-0.21
	C226.61,65.2,226.33,65.36,226.27,65.3z M226.5,67.8c-0.22-0.01-0.18-0.25-0.23-0.42C226.49,67.39,226.44,67.64,226.5,67.8z
	 M226.72,58.21c0.12,0.11-0.16,0.27-0.23,0.21C226.38,58.31,226.66,58.15,226.72,58.21z M226.45,61.37c-0.11-0.11,0-0.94,0-1.15
	C227.14,57.39,228.62,63.25,226.45,61.37z M226.72,63.42c-0.12,0.11-0.29-0.15-0.23-0.21C226.61,63.11,226.79,63.36,226.72,63.42z
	 M226.5,59.88c-0.27-0.03-0.19-0.38-0.23-0.63C226.54,59.28,226.46,59.63,226.5,59.88z M226.04,58c-0.12-0.11,0.16-0.26,0.23-0.21
	C226.39,57.9,226.1,58.06,226.04,58z M226.5,64.05C226.22,64.07,226.36,63.74,226.5,64.05c0.68,0,1.36,0,2.05,0
	C228.56,64.37,226.13,64.64,226.5,64.05z M232.5,66.91c-0.34-0.31,0.46-0.73,0.57-0.52C233.41,66.6,232.61,67.01,232.5,66.91z
	 M232.86,69.89c-0.28,0.3-0.78,0.4-1.36,0.42C231.28,69.55,232.39,70.02,232.86,69.89z M232.5,63.04c-0.34-0.31,0.46-0.73,0.57-0.63
	C233.41,62.73,232.61,63.14,232.5,63.04z M231.04,53.2c-0.3-0.07-0.36-0.36-0.68-0.42c0.08-0.27,0.4-0.33,0.45-0.63
	C231.21,52.35,231.4,52.89,231.04,53.2z M231.73,60.09c-0.51,0.47-1.58,0.69-0.91,1.67c-0.79,0.17-0.88-0.31-1.6-0.21
	c-0.07-0.37,0.73-1.12-0.23-1.04C229.77,59.51,230.12,60.2,231.73,60.09z M231.27,76.77c-0.12,0.11-0.29-0.15-0.23-0.21
	C231.16,76.46,231.34,76.71,231.27,76.77z M230.1,63.56c0.46,1.57-1.25,1.15-1.25,2.2C227.6,65.65,228.74,63.14,230.1,63.56z
	 M229.91,70.31c-0.28,0.3-0.78,0.39-1.36,0.42C228.75,70.36,229.25,70.26,229.91,70.31z M229.46,67.18
	c0.12-0.11,0.29,0.15,0.23,0.21C229.56,67.5,229.39,67.23,229.46,67.18z M228.54,60.71c-0.12-0.11,0.16-0.27,0.23-0.21
	C228.89,60.61,228.61,60.77,228.54,60.71z M227.86,65.92c-0.22-0.01-0.18-0.25-0.23-0.42C227.85,65.51,227.81,65.76,227.86,65.92z
	 M228.77,68.64c-0.11,0.54-1.68,1.06-1.59,0C227.71,68.64,228.24,68.64,228.77,68.64z M232.41,82.4c-0.01,0.2-0.28,0.16-0.46,0.21
	C231.96,82.41,232.23,82.45,232.41,82.4z M232.64,69.06c0-0.14,0-0.28,0-0.42c0.15,0,0.3,0,0.45,0c0,0.14,0,0.28,0,0.42
	C232.94,69.06,232.79,69.06,232.64,69.06z M233.55,76.15c0.24,0.22-0.35,0.55-0.23,0.21C232.88,76.33,233.42,76.03,233.55,76.15z
	 M234.32,77.47c-0.34-0.31,0.46-0.73,0.57-0.63C235.23,77.16,234.44,77.58,234.32,77.47z M234.32,80.19c-0.11,0.94-0.68,0-0.57-0.52
	C233.87,78.73,234.44,79.67,234.32,80.19z M234.23,53.83c-0.12-0.11,0.17-0.26,0.23-0.21C234.57,53.73,234.29,53.88,234.23,53.83z
	 M234,53.62c-0.04,0.18,0.09,0.2,0.23,0.21c-0.23,0.64-0.61-0.24-0.91-0.21c-0.04-0.45,0.8-0.09,1.14-0.21
	C234.45,53.61,234.18,53.57,234,53.62z M234.23,60.29c-0.22,0.42-0.87,0.45-1.59,0.42C232.67,60.11,233.58,60.33,234.23,60.29z
	 M225.58,78.65c-0.01,0.2-0.28,0.16-0.45,0.21C225.14,78.66,225.41,78.7,225.58,78.65z M225.13,70.72c0.01-0.2,0.28-0.16,0.45-0.21
	C225.58,70.72,225.31,70.68,225.13,70.72z M225.89,92.95c0,0.63-0.68,0.31-0.68,0C225.2,92.32,225.89,92.64,225.89,92.95z
	 M225.36,63.84c0.04-0.18-0.09-0.2-0.23-0.21c-0.09-0.41,1.03-0.31,0.68,0.21C225.66,63.84,225.51,63.84,225.36,63.84z
	 M225.13,95.55c0.12-0.11,0.29,0.15,0.23,0.21C225.24,95.86,225.07,95.61,225.13,95.55z M225.89,98.49
	c0.23,0.31-0.46,0.73-0.68,0.52C224.97,98.8,225.66,98.39,225.89,98.49z M228.85,79.14c-0.23-0.31,1.02-0.73,1.25-0.63
	C230.33,78.83,229.08,79.25,228.85,79.14z M230.14,82.61c-0.02,0.15-0.18,0.18-0.36,0.19c0.09,0.03,0.18,0.19,0.13,0.23
	c-0.12,0.11-0.29-0.15-0.23-0.21c0.03-0.03,0.06-0.03,0.08-0.02c-0.1,0.01-0.21,0.01-0.31,0.02
	C229.49,82.58,229.87,82.65,230.14,82.61z M230.14,88.04c-0.12,0.11-0.29-0.15-0.23-0.21C230.02,87.72,230.2,87.98,230.14,88.04z
	 M229.68,85.95c-0.22-0.01-0.18-0.26-0.23-0.42C229.67,85.54,229.63,85.79,229.68,85.95z M229.91,90.33
	c0.29,0.29,1.07,0.13,1.37,0.42c-0.02,0.63-1.49,0.49-1.82,0.21C229.6,90.74,229.98,90.74,229.91,90.33z M229.91,99.51
	c0.12-0.11,0.29,0.15,0.23,0.21C230.02,99.83,229.84,99.57,229.91,99.51z M230.67,105.19c-0.23,0.83-0.57-0.11-1.25,0
	C229.65,104.45,230.67,104.56,230.67,105.19z M230.1,109.58c0.57-2.93,2.05,3.03,0,1.15C229.99,110.62,230.1,109.79,230.1,109.58z
	 M233.07,103.51c0-0.21,0.91-0.84,1.25-0.52C234.89,103.51,233.07,104.66,233.07,103.51z M234,87.2c0.18,0.04,0.23,0.21,0.45,0.21
	C234.33,87.9,233.38,87.54,234,87.2z M234.68,100.55c0.12,0.11-0.16,0.26-0.23,0.21C234.34,100.65,234.62,100.5,234.68,100.55z
	 M234.91,85.53c0.04-0.24,0.42-0.18,0.68-0.21C235.56,85.57,235.18,85.5,234.91,85.53z M238.32,61.96c0.05-0.24,0.23-0.11,0.23,0
	C238.51,62.2,238.32,62.08,238.32,61.96z M238.78,74.48c-0.27-0.03-0.19-0.38-0.23-0.63C238.82,73.89,238.74,74.23,238.78,74.48z
	 M238.78,84.91c-0.12,0.11-0.29-0.14-0.23-0.21c0,0,0,0,0,0v0C238.67,84.59,238.84,84.85,238.78,84.91z M239,73.43
	c-0.12,0.11-0.29-0.15-0.23-0.21C238.9,73.12,239.07,73.38,239,73.43z M236.73,41.97c0.64-0.04-0.07,1.56,0,0.42V41.97z
	 M234.46,42.81c-0.01,0.2-0.28,0.16-0.45,0.21c-0.04,0.18,0.09,0.2,0.23,0.21c-0.23,0.64-0.61-0.24-0.91-0.21
	C233.28,42.57,234.12,42.92,234.46,42.81z M234.23,49.69c-0.22,0.42-0.87,0.45-1.59,0.42C232.67,49.51,233.58,49.73,234.23,49.69z
	 M230.82,41.56c0.4,0.19,0.59,0.73,0.23,1.04c-0.3-0.07-0.36-0.36-0.68-0.42C230.44,41.91,230.76,41.85,230.82,41.56z M231.73,49.49
	c-0.42,0.39-1.21,0.61-1.1,1.23c-0.16,0-0.33-0.01-0.49-0.01c0,0,0,0,0,0v0c-0.29-0.01-0.58-0.01-0.87-0.01
	c0.14-0.38,0.49-0.85-0.27-0.79C229.77,48.91,230.12,49.6,231.73,49.49z M227.56,50.71c-0.38,0.01-0.75,0.03-1.11,0.05
	c-0.1-0.12,0-0.93,0-1.14C226.92,47.71,227.74,49.75,227.56,50.71z M226.5,49.28c-0.27-0.03-0.19-0.38-0.23-0.63
	C226.54,48.68,226.46,49.03,226.5,49.28z M222.17,61.34c-0.01,0.2-0.28,0.17-0.45,0.21C221.73,61.34,222,61.38,222.17,61.34z
	 M221.27,75.1c0.34,0.32,0.36,0.92,0.45,1.46C221.19,76.4,220.8,75.56,221.27,75.1z M221.95,70.1c-0.08,0-0.15,0-0.23,0
	c-0.01,0.2-0.27,0.16-0.45,0.21c0-0.2,0.27-0.16,0.44-0.21c-0.07,0-0.15,0-0.22,0c-0.08-0.42,0.05-0.65,0.45-0.63
	C221.95,69.68,221.95,69.89,221.95,70.1z M221.95,68.43c0-0.14,0-0.28,0-0.42C222.59,67.97,221.89,69.57,221.95,68.43z
	 M222.18,95.55c0.12-0.11,0.29,0.15,0.23,0.21C222.28,95.86,222.11,95.61,222.18,95.55z M222.4,120.37
	c-0.12-0.11,0.16-0.26,0.23-0.21C222.75,120.27,222.46,120.43,222.4,120.37z M222.63,110.98c0.04-0.24,0.23-0.12,0.23,0
	C222.81,111.22,222.63,111.1,222.63,110.98z M222.86,104.1c-0.12,0.11-0.29-0.15-0.23-0.21
	C222.75,103.78,222.92,104.04,222.86,104.1z M223.08,109.11c-0.12-0.11,0.17-0.27,0.23-0.21
	C223.43,109.01,223.14,109.16,223.08,109.11z M222.85,102.01c0.04-0.25,0.42-0.18,0.68-0.21
	C223.5,102.05,223.12,101.98,222.85,102.01z M223.77,128.09c-0.03,0.57-0.07,1.45-0.23,0.63c-0.04-0.22,0.03-0.77,0-1.46
	C224.29,127.36,223.78,127.77,223.77,128.09z M223.77,122.25c-0.12-0.11,0.16-0.27,0.23-0.21
	C224.11,122.15,223.83,122.3,223.77,122.25z M224.22,118.08c0.22,0.01,0.17,0.25,0.23,0.42
	C224.23,118.49,224.27,118.24,224.22,118.08z M224.45,70.1c-0.6,0.06-0.98-0.08-0.91-0.63c0.19,0.04,0.22-0.08,0.23-0.21
	C224.37,69.2,224.51,69.55,224.45,70.1z M224.91,126.84c0.22,0.01,0.17,0.26,0.23,0.42C224.91,127.25,224.95,127,224.91,126.84z
	 M224.91,123.92c0.22,0.01,0.17,0.26,0.23,0.42C224.91,124.33,224.95,124.08,224.91,123.92z M225.2,114.6
	C225.2,113.97,226.11,114.28,225.2,114.6C225.31,115.22,224.4,114.91,225.2,114.6z M225.82,120.79c0.15,0,0.3,0,0.45,0
	C226.31,121.37,224.57,120.73,225.82,120.79z M226.04,102.85c0.1-0.3,0.2,0.02,0.45,0C226.44,103.11,226.04,103.06,226.04,102.85z
	 M226.04,102.01c-0.69-0.02-0.54-1.37-0.23-1.67c0.23,0.13,0.24,0.48,0.68,0.41C226.18,101.03,226.36,101.74,226.04,102.01z
	 M225.58,99.72c-0.07-0.55,0.48-0.54,0.91-0.63C226.3,99.4,226.16,99.76,225.58,99.72z M226.95,127.25
	c-0.12,0.11-0.29-0.15-0.23-0.21C226.84,126.94,227.01,127.2,226.95,127.25z M227.18,126.42c-0.12,0.11-0.29-0.15-0.23-0.21
	C227.07,126.1,227.24,126.36,227.18,126.42z M228.09,121.41C226.63,121.65,227.59,120.78,228.09,121.41
	C229.03,121.22,228.13,122.04,228.09,121.41z M228.28,119.62c-0.34-0.31,0.46-0.73,0.57-0.63
	C229.19,119.3,228.39,119.72,228.28,119.62z M228.28,96.82c-0.68-0.63,0.46-1.47,0.57-1.67C230.67,93.47,229.08,97.76,228.28,96.82z
	 M228.99,100.97c-0.12-0.11,0.17-0.27,0.23-0.21C229.34,100.87,229.06,101.03,228.99,100.97z M230.1,112.92v-0.52
	c2.17-0.1,0,2.3-0.68,1.67C228.96,113.45,229.99,113.03,230.1,112.92z M229.91,131.22c-0.4-0.15-0.03-0.38,0-0.62
	C230.32,130.75,229.94,130.97,229.91,131.22z M229.45,120.79c-0.55-0.46,1.73-0.12,2.27,0
	C231.16,121.43,230.34,120.54,229.45,120.79z M231.73,110.36C231.45,110.38,231.59,110.06,231.73,110.36
	c0.16,0.06,0.23,0.15,0.25,0.23c0.01-0.16,0.02-0.32-0.02-0.44c0.68,0.36,0.25,0.75,0.23,1.46c-0.32-0.06-0.28-0.45-0.23-0.83
	C231.86,110.97,231.58,111.02,231.73,110.36z M232.41,122.66c0-0.35,0-0.69,0-1.04C232.94,121.78,233.46,122.75,232.41,122.66z
	 M231.93,119.62c0-0.21,0.91-0.83,1.14-0.63C233.75,119.62,231.93,120.77,231.93,119.62z M232.41,118.49
	c0.05-0.39,0.42-0.45,0.71-0.32c-0.03-0.07-0.05-0.13-0.05-0.23c0-0.21,0.91-0.84,1.25-0.63c0.46,0.51-0.62,1.33-1.06,1.04
	C233.11,118.53,232.71,118.46,232.41,118.49z M234,126.84c0.08,0.48-0.03,0.8-0.23,1.04C233.1,127.86,233.16,126.64,234,126.84z
	 M234,130.38c0.22,0,0.18,0.26,0.23,0.42C234,130.79,234.05,130.54,234,130.38z M234.23,126c0.22,0.01,0.17,0.26,0.23,0.42
	C234.24,126.42,234.28,126.17,234.23,126z M234,123.29c0.47-0.09,0.6,0.14,0.91,0.21C234.98,123.87,233.63,123.87,234,123.29z
	 M234.91,122.46c0.22,0.01,0.18,0.26,0.23,0.42C234.92,122.87,234.96,122.62,234.91,122.46z M235.37,120.58
	c0,0.91-0.39,0.04-0.23-0.42c-0.21-0.37-0.08-1.04-0.46-1.25c0.17-0.37,0.42-0.03,0.69,0C235.37,119.47,235.37,120.02,235.37,120.58
	z M235.59,117.45c-0.12,0.11-0.29-0.15-0.23-0.21C235.49,117.13,235.66,117.39,235.59,117.45z M236.05,74.27
	c0.22,0,0.18,0.25,0.23,0.42C236.05,74.68,236.1,74.43,236.05,74.27z M236.28,55.92c-0.12,0.1-0.29-0.15-0.23-0.21
	C236.17,55.59,236.34,55.86,236.28,55.92z M236.28,54.66c-0.12,0.11-0.29-0.15-0.23-0.21C236.17,54.34,236.34,54.6,236.28,54.66z
	 M236.5,75.73c0-0.14,0-0.28,0-0.42C237.14,75.27,236.44,76.87,236.5,75.73z M236.74,53.28c0.04,0.02,0.09,0.04,0.13,0.07
	C236.82,53.43,236.76,53.43,236.74,53.28z M237.18,87.41C237.23,86.79,238.13,87.61,237.18,87.41
	C237.21,87.66,236.85,87.54,237.18,87.41z M237.87,111.61c-0.47-0.13-0.86-0.33-0.68-1.04
	C237.45,110.88,237.84,111.08,237.87,111.61C238.14,111.59,238.01,111.91,237.87,111.61z M239.23,117.24
	c-0.12,0.11-0.29-0.15-0.23-0.21C239.12,116.93,239.29,117.19,239.23,117.24z M238.78,93.25c0.12-0.11,0.29,0.15,0.23,0.21
	C238.89,93.57,238.71,93.31,238.78,93.25z M238.55,124.75c0.06-0.26,0.45-0.21,0.45,0C238.9,125.06,238.8,124.73,238.55,124.75z"/>
<g>
	<defs>
		<path id="SVGID_3_" d="M239.44,20.04c0.18,5.44-3.81,9.79-10.15,9.79c-5.62,0-9.61-4.35-9.61-9.79c0-5.62,4.17-9.97,9.97-9.97
			C235.63,10.07,239.44,14.42,239.44,20.04z"/>
	</defs>
	<use xlink:href="#SVGID_3_"  style="overflow:visible;fill:#4DAFD6;"/>
	<clipPath id="SVGID_4_">
		<use xlink:href="#SVGID_3_"  style="overflow:visible;"/>
	</clipPath>
	<path class="st4" d="M239.34,17.08c-0.1,0.08-0.22,0.16-0.39,0.17c0.29-0.27,0.28-0.81,0.25-1.37c0.04,0.01,0.05,0.06,0.08,0.08
		c-0.11-2.33-0.22-4.5-0.22-6.09c0-8.21,0-16.13,0-24.06c-0.61,0.04-0.92,0.44-1.37,0.01c0.09-0.41,0.81-0.24,1.37-0.21
		c0-1.12,0-2.25,0-3.38c-0.56,0.19-1.17,0.12-1.12-0.54c0.6-0.09,0.76-0.13,1.12-0.17c0-5.56,0-11.14,0-16.87
		c0-2.75,0.37-7.13,0.44-11.24c-0.06-0.06-0.1-0.15-0.06-0.18c0.02-0.02,0.04,0.02,0.06,0.01c0.03-1.81,0-3.55-0.15-5.08
		c-0.11-0.02-0.22-0.16-0.16-0.21c0.05-0.04,0.1,0,0.14,0.03c-0.08-0.78-0.2-1.47-0.35-2.11c0.13-0.01,0.25-0.02,0.38-0.02
		c0.07-1.35,0.12-2.75,0.15-4.11c-0.06-0.06-0.1-0.15-0.06-0.18c0.02-0.02,0.04,0.02,0.06,0.01c0.03-1.81,0-3.55-0.15-5.08
		c-0.11-0.02-0.22-0.16-0.16-0.21c0.05-0.04,0.1,0,0.14,0.03c-0.22-2.14-0.67-3.83-1.53-4.62c-0.23-0.21-0.62-0.39-1.13-0.55
		c0,0.03,0.01,0.06,0.02,0.08c-0.09,0-0.11-0.06-0.14-0.12c-1.68-0.49-4.53-0.74-7.36-0.8c0,0,0,0,0,0v0
		c-3.64-0.07-7.21,0.19-8.07,0.69c-0.25,0.23-2.01,1.04-2.01,1.27c-0.09,0.87-0.14,1.76-0.2,2.65c0.09,0,0.18,0,0.26-0.01
		c-0.02,0.13-0.13,0.18-0.27,0.2c-0.07,1.02-0.14,2.04-0.19,3.08c0.53,0.09,1.38,0.11,1.21,0.63c-0.55,0.05-0.91-0.19-1.22-0.31
		c-0.09,2.25-0.12,4.56-0.12,6.93c0.14,0,0.28,0.02,0.41,0.02c-0.03,0.38-0.06,0.75-0.09,1.13c0.09,0,0.18,0,0.26-0.01
		c-0.02,0.13-0.13,0.18-0.27,0.2c-0.07,1.02-0.14,2.04-0.19,3.08c0.53,0.09,1.38,0.11,1.21,0.63c-0.55,0.05-0.91-0.19-1.22-0.31
		c-0.28,6.68-0.06,13.79,0.16,21.89c0.03,0.07,0.03,0.15,0,0.21c0.13,4.82,0.25,9.96,0.25,15.63c0,6.1,0,13.58,0,21.98
		c0,0.92-0.01,1.85-0.03,2.78c0.54-0.06,0.22,0.33-0.01,0.27c-0.16,8.03-0.77,16.3,0.79,18.24c2.26,3,16.56,2.65,18.57,0
		C239.8,29.43,239.61,22.9,239.34,17.08z M238.95-16.72c-0.01,0.22-0.31,0.18-0.5,0.23C238.46-16.72,238.76-16.67,238.95-16.72z
		 M237.2-20.17c-0.26-0.77,0.77-0.36,1.25-0.46C238.41-20.13,237.82-20.14,237.2-20.17z M234.19-17.41
		c0.05-0.19,0.25-0.23,0.25-0.46c0.17,0,0.33,0,0.5,0C235.07-17.38,234.59-17.44,234.19-17.41z M234.7,11.74
		c-0.31-0.05-0.25-0.46,0-0.46C235.06,11.38,234.67,11.48,234.7,11.74z M231.69,6c-0.13-0.12,0.18-0.29,0.25-0.23
		C232.07,5.89,231.76,6.07,231.69,6z M231.7,6.23c-0.13,0.12-0.32-0.17-0.25-0.23C231.57,5.89,231.77,6.17,231.7,6.23z
		 M228.69,14.72c0-0.38,0-0.76,0-1.15c0.25,0,0.5,0,0.75,0C229.52,14.4,229.93,14.78,228.69,14.72z M230.44,13.35
		c-0.13,0.34-0.37,0.57-0.5,0.92C229.41,14.19,229.89,13.18,230.44,13.35z M226.94,4.85c0-0.23,0-0.46,0-0.69
		C227.66,4.3,226.85,6.56,226.94,4.85z M226.94,3.48c0.25,0.01,0.2,0.28,0.25,0.46C226.95,3.93,227,3.65,226.94,3.48z M227.19,11.28
		c-0.17,0.72-0.67,0.3-1.25,0.23C225.89,11.01,226.82,11.41,227.19,11.28C227.24,10.6,228.23,11.5,227.19,11.28z M227.69-1.57
		c0.25,0.24-0.38,0.6-0.25,0.23C226.96-1.37,227.55-1.7,227.69-1.57z M226.94,18.17c-0.05,0.26-0.25,0.12-0.25,0
		C226.74,17.91,226.94,18.04,226.94,18.17z M226.19,8.07c-0.07-0.37,0.24-0.4,0.25-0.68C226.92,7.29,226.8,8.43,226.19,8.07z
		 M226.44,6.46c0.24,0,0.19,0.28,0.25,0.46C226.44,6.91,226.49,6.64,226.44,6.46z M225.93-4.56c0.01-0.22,0.31-0.18,0.5-0.23
		C226.43-4.56,226.13-4.61,225.93-4.56z M226.94,6c-0.13,0.11-0.32-0.17-0.25-0.23C226.82,5.66,227.01,5.94,226.94,6z M224.51-26.74
		c-0.38-0.34,1.13-0.8,1.25-0.69C226.15-27.08,224.64-26.62,224.51-26.74z M224.94-6.39c-0.36-0.1,0.03-0.2,0-0.46
		C225.25-6.8,225.19-6.4,224.94-6.39z M222.68-43.58c0.13,0.12-0.18,0.29-0.25,0.23C222.3-43.47,222.61-43.65,222.68-43.58z
		 M221.18-11.67c0.2,0.65-0.35,0.59-0.25,1.15C220.52-10.49,220.43-12.03,221.18-11.67z M220.93-52.76
		C220.98-53.45,221.97-52.55,220.93-52.76C220.17-51.91,220.09-53.46,220.93-52.76z M222.18-10.07c-0.71,0.19-0.65-0.32-1.25-0.23
		C220.89-10.67,222.57-10.76,222.18-10.07z M221.68-35.78c0.12,0.12-0.18,0.3-0.25,0.23C221.3-35.67,221.61-35.84,221.68-35.78z
		 M221.43-50.01c-0.13-0.12,0.18-0.29,0.25-0.23C221.81-50.12,221.5-49.95,221.43-50.01z M232.45-5.7c-0.08-0.6,0.35-0.76,1-0.69
		C234.02-5.62,233.12-5.21,232.45-5.7z M233.7-7.08c0.28,0.04,0.14,0.23,0,0.23C233.41-6.89,233.56-7.08,233.7-7.08z M231.79-13.39
		c0-0.69,0.63-0.34,0.63,0C232.42-12.7,231.79-13.04,231.79-13.39z M232.19-0.65c-0.37-0.1,0.03-0.2,0-0.46
		C232.51-1.06,232.45-0.66,232.19-0.65z M231.16-19.49c0.88,0.46,1.26,1.38,1.26,2.42C231.29-17.19,230.91-18.11,231.16-19.49z
		 M231.45-13.97c-0.37-0.1,0.02-0.2,0-0.46C231.76-14.37,231.7-13.97,231.45-13.97z M231.7-5.25c-0.25,0-0.2-0.28-0.25-0.46
		C231.69-5.7,231.64-5.42,231.7-5.25z M231.45,0.27c0.13-0.12,0.32,0.16,0.25,0.23C231.56,0.61,231.38,0.33,231.45,0.27z
		 M229.44-2.26c-0.13-0.12,0.18-0.29,0.25-0.23C229.82-2.37,229.51-2.2,229.44-2.26z M229.44-0.19c-0.54,0.11-0.48-0.33-0.5-0.69
		C229.25-0.78,229.45-0.59,229.44-0.19z M229.15-4.87c0-0.23,1.01-0.81,1.26-0.57C231.16-4.76,229.15-3.49,229.15-4.87z M229.44-5.7
		c0-0.16,0-0.31,0-0.46C230.15-6.21,229.37-4.45,229.44-5.7z M230.19-11.44c0.29,0.04,0.21,0.42,0.25,0.69
		C230.15-10.79,230.23-11.18,230.19-11.44z M230.94-3.41c-0.01,0.22-0.3,0.18-0.5,0.23C230.45-3.4,230.75-3.36,230.94-3.41z
		 M229.15-28.58c0-1.27,3.27-0.69,2.01,0.58C230.54-27.43,229.15-28.35,229.15-28.58z M229.69-22.69c-0.13-0.12,0.18-0.29,0.25-0.23
		C230.07-22.81,229.76-22.63,229.69-22.69z M229.69-18.33c-0.13,0.12-0.32-0.17-0.25-0.23C229.57-18.68,229.76-18.39,229.69-18.33z
		 M224.94-41.98c-0.13-0.12,0.18-0.29,0.25-0.23C225.31-42.09,225.01-41.91,224.94-41.98z M225.19-39.22
		c-0.24-0.01-0.2-0.28-0.25-0.46C225.18-39.67,225.13-39.4,225.19-39.22z M225.44-49.78c0.13,0.12-0.18,0.29-0.25,0.23
		C225.06-49.67,225.37-49.84,225.44-49.78z M225.14-46.3c-0.12-0.12,0-1.04,0-1.27C225.9-50.68,227.52-44.23,225.14-46.3z
		 M225.44-44.04c-0.13,0.12-0.32-0.17-0.25-0.23C225.31-44.39,225.51-44.11,225.44-44.04z M225.19-47.95
		c-0.29-0.04-0.21-0.42-0.25-0.69C225.23-48.6,225.15-48.21,225.19-47.95z M224.69-50.01c-0.13-0.12,0.18-0.29,0.25-0.23
		C225.06-50.12,224.75-49.95,224.69-50.01z M225.19-43.35C224.89-43.33,225.03-43.69,225.19-43.35c0.75,0,1.5,0,2.25,0
		C227.46-43,224.78-42.7,225.19-43.35z M231.79-40.21c-0.38-0.34,0.5-0.8,0.63-0.57C232.79-40.55,231.92-40.09,231.79-40.21z
		 M232.19-36.92c-0.31,0.33-0.86,0.43-1.5,0.46C230.45-37.29,231.68-36.79,232.19-36.92z M231.79-44.46
		c-0.38-0.35,0.5-0.81,0.63-0.69C232.79-44.81,231.92-44.35,231.79-44.46z M230.19-55.29c-0.33-0.08-0.39-0.4-0.75-0.46
		c0.09-0.3,0.44-0.36,0.5-0.69C230.38-56.23,230.59-55.63,230.19-55.29z M230.94-47.71c-0.57,0.52-1.73,0.75-1,1.84
		c-0.87,0.18-0.96-0.34-1.76-0.23c-0.07-0.4,0.8-1.23-0.25-1.15C228.79-48.35,229.18-47.58,230.94-47.71z M230.44-29.35
		c-0.13,0.12-0.32-0.17-0.25-0.23C230.32-29.7,230.51-29.41,230.44-29.35z M229.15-43.89c0.5,1.73-1.38,1.27-1.38,2.42
		C226.4-41.59,227.65-44.35,229.15-43.89z M228.94-36.46c-0.31,0.33-0.86,0.43-1.5,0.46C227.67-36.41,228.22-36.51,228.94-36.46z
		 M228.44-39.91c0.13-0.12,0.32,0.17,0.25,0.23C228.56-39.56,228.37-39.85,228.44-39.91z M227.44-47.03
		c-0.13-0.12,0.18-0.29,0.25-0.23C227.82-47.14,227.51-46.96,227.44-47.03z M226.69-41.29c-0.24-0.01-0.19-0.28-0.25-0.46
		C226.68-41.74,226.63-41.47,226.69-41.29z M227.69-38.3c-0.12,0.6-1.85,1.16-1.75,0C226.52-38.3,227.1-38.3,227.69-38.3z
		 M231.69-23.15c-0.01,0.22-0.31,0.18-0.5,0.23C231.2-23.14,231.5-23.1,231.69-23.15z M231.95-37.84c0-0.16,0-0.31,0-0.46
		c0.17,0,0.34,0,0.5,0c0,0.15,0,0.31,0,0.46C232.28-37.84,232.11-37.84,231.95-37.84z M232.95-30.04c0.26,0.24-0.38,0.6-0.25,0.23
		C232.21-29.84,232.81-30.17,232.95-30.04z M233.8-28.58c-0.38-0.34,0.5-0.8,0.63-0.69C234.8-28.93,233.93-28.46,233.8-28.58z
		 M233.8-25.59c-0.13,1.04-0.75,0-0.63-0.57C233.3-27.2,233.93-26.16,233.8-25.59z M233.69-54.6c-0.13-0.12,0.18-0.29,0.25-0.23
		C234.07-54.71,233.77-54.54,233.69-54.6z M233.44-54.83c-0.05,0.2,0.1,0.22,0.25,0.23c-0.25,0.7-0.67-0.27-1-0.23
		c-0.04-0.5,0.89-0.1,1.25-0.23C233.94-54.84,233.64-54.88,233.44-54.83z M233.69-47.48c-0.24,0.47-0.96,0.5-1.75,0.46
		C231.98-47.68,232.98-47.45,233.69-47.48z M224.18-27.28c-0.01,0.22-0.31,0.18-0.5,0.23C223.69-27.28,223.99-27.23,224.18-27.28z
		 M223.68-36.01c0.01-0.22,0.31-0.18,0.5-0.23C224.18-36.01,223.88-36.06,223.68-36.01z M224.51-11.55c0,0.69-0.75,0.35-0.75,0
		C223.76-12.24,224.51-11.89,224.51-11.55z M223.93-43.58c0.05-0.2-0.1-0.22-0.25-0.23c-0.1-0.45,1.14-0.34,0.75,0.23
		C224.27-43.58,224.1-43.58,223.93-43.58z M223.68-8.69c0.13-0.12,0.32,0.17,0.25,0.23C223.81-8.34,223.62-8.62,223.68-8.69z
		 M224.51-5.45c0.25,0.34-0.5,0.8-0.75,0.57C223.51-5.1,224.26-5.56,224.51-5.45z M227.78-26.74c-0.25-0.34,1.13-0.8,1.38-0.69
		C229.41-27.08,228.03-26.62,227.78-26.74z M229.19-22.92c-0.02,0.17-0.2,0.2-0.4,0.21c0.1,0.03,0.2,0.2,0.14,0.25
		c-0.13,0.12-0.32-0.17-0.25-0.23c0.03-0.03,0.06-0.03,0.09-0.02c-0.12,0.01-0.23,0.01-0.34,0.02
		C228.48-22.96,228.9-22.89,229.19-22.92z M229.19-16.95c-0.13,0.12-0.32-0.17-0.25-0.23C229.07-17.3,229.26-17.02,229.19-16.95z
		 M228.69-19.25c-0.24-0.01-0.19-0.28-0.25-0.46C228.68-19.7,228.63-19.43,228.69-19.25z M228.94-14.43
		c0.32,0.32,1.18,0.14,1.5,0.46c-0.02,0.7-1.64,0.54-2,0.23C228.6-13.97,229.02-13.98,228.94-14.43z M228.94-4.33
		c0.13-0.12,0.32,0.16,0.25,0.23C229.06-3.98,228.87-4.26,228.94-4.33z M229.78,1.92c-0.25,0.92-0.63-0.12-1.38,0
		C228.65,1.11,229.78,1.23,229.78,1.92z M229.15,6.75c0.63-3.22,2.26,3.34,0,1.27C229.03,7.9,229.15,6.98,229.15,6.75z M232.42,0.08
		c0-0.23,1-0.92,1.38-0.57C234.43,0.08,232.42,1.34,232.42,0.08z M233.44-17.87c0.2,0.04,0.25,0.23,0.5,0.23
		C233.81-17.1,232.76-17.5,233.44-17.87z M234.19-3.18c0.13,0.12-0.18,0.29-0.25,0.23C233.82-3.07,234.13-3.24,234.19-3.18z
		 M234.45-19.71c0.04-0.27,0.46-0.19,0.75-0.23C235.16-19.67,234.74-19.74,234.45-19.71z M238.2-45.65c0.05-0.26,0.25-0.13,0.25,0
		C238.4-45.39,238.2-45.52,238.2-45.65z M238.7-31.88c-0.3-0.04-0.21-0.42-0.25-0.69C238.74-32.53,238.66-32.15,238.7-31.88z
		 M238.7-20.4c-0.13,0.12-0.32-0.16-0.25-0.23c0,0,0,0,0,0v0C238.58-20.75,238.77-20.46,238.7-20.4z M238.95-33.02
		c-0.13,0.12-0.32-0.16-0.25-0.23C238.83-33.37,239.02-33.08,238.95-33.02z M236.45-67.65c0.7-0.05-0.07,1.72,0,0.46V-67.65z
		 M233.95-66.73c-0.01,0.22-0.31,0.18-0.5,0.23c-0.05,0.2,0.1,0.22,0.25,0.23c-0.25,0.7-0.67-0.27-1-0.23
		C232.65-66.99,233.58-66.6,233.95-66.73z M233.69-59.15c-0.24,0.47-0.96,0.5-1.75,0.46C231.98-59.35,232.98-59.11,233.69-59.15z
		 M229.94-68.1c0.44,0.21,0.64,0.81,0.25,1.15c-0.33-0.08-0.39-0.4-0.75-0.46C229.53-67.71,229.88-67.78,229.94-68.1z M230.94-59.38
		c-0.47,0.43-1.33,0.67-1.21,1.35c-0.18-0.01-0.36-0.01-0.54-0.02c0,0,0,0,0,0v0c-0.32-0.01-0.64-0.01-0.95-0.01
		c0.15-0.42,0.54-0.93-0.3-0.87C228.79-60.01,229.18-59.25,230.94-59.38z M226.36-58.03c-0.42,0.01-0.83,0.03-1.22,0.05
		c-0.11-0.14,0-1.03,0-1.25C225.65-61.34,226.55-59.08,226.36-58.03z M225.19-59.61c-0.29-0.04-0.21-0.42-0.25-0.69
		C225.23-60.26,225.15-59.88,225.19-59.61z M220.43-46.34c-0.01,0.22-0.31,0.18-0.5,0.23C219.94-46.33,220.23-46.29,220.43-46.34z
		 M219.43-31.19c0.37,0.35,0.4,1.01,0.5,1.61C219.34-29.76,218.92-30.69,219.43-31.19z M220.18-36.69c-0.08,0-0.17,0-0.25,0
		c-0.01,0.22-0.3,0.18-0.5,0.23c0-0.22,0.3-0.18,0.49-0.23c-0.08,0-0.16,0-0.24,0c-0.08-0.46,0.05-0.72,0.5-0.69
		C220.18-37.15,220.18-36.92,220.18-36.69z M220.18-38.53c0-0.15,0-0.31,0-0.46C220.88-39.04,220.11-37.28,220.18-38.53z
		 M220.43-8.69c0.13-0.12,0.32,0.17,0.25,0.23C220.55-8.34,220.36-8.62,220.43-8.69z M220.68,18.63c-0.13-0.12,0.18-0.29,0.25-0.23
		C221.06,18.52,220.75,18.69,220.68,18.63z M220.93,8.3c0.05-0.26,0.25-0.13,0.25,0C221.13,8.56,220.93,8.43,220.93,8.3z
		 M221.18,0.72c-0.13,0.12-0.32-0.17-0.25-0.23C221.06,0.37,221.25,0.66,221.18,0.72z M221.43,6.23c-0.13-0.12,0.18-0.29,0.25-0.23
		C221.81,6.12,221.5,6.3,221.43,6.23z M221.18-1.57c0.04-0.27,0.46-0.2,0.75-0.23C221.89-1.53,221.47-1.61,221.18-1.57z
		 M222.18,27.12c-0.03,0.62-0.08,1.59-0.25,0.69c-0.04-0.25,0.03-0.85,0-1.61C222.76,26.32,222.2,26.77,222.18,27.12z M222.18,20.69
		c-0.13-0.12,0.18-0.29,0.25-0.23C222.56,20.58,222.25,20.76,222.18,20.69z M222.69,16.1c0.24,0.01,0.19,0.28,0.25,0.46
		C222.69,16.56,222.74,16.28,222.69,16.1z M222.93-36.7c-0.66,0.07-1.08-0.08-1-0.69c0.21,0.04,0.24-0.09,0.25-0.23
		C222.85-37.68,223.01-37.29,222.93-36.7z M223.44,25.74c0.24,0.01,0.19,0.28,0.25,0.46C223.44,26.2,223.49,25.92,223.44,25.74z
		 M223.44,22.53c0.24,0.01,0.19,0.28,0.25,0.46C223.44,22.98,223.49,22.71,223.44,22.53z M223.76,12.28
		C223.76,11.58,224.76,11.93,223.76,12.28C223.88,12.96,222.88,12.62,223.76,12.28z M224.44,19.09c0.17,0,0.33,0,0.5,0
		C224.99,19.73,223.07,19.02,224.44,19.09z M224.69-0.65c0.11-0.34,0.22,0.02,0.5,0C225.13-0.37,224.69-0.42,224.69-0.65z
		 M224.69-1.57c-0.76-0.02-0.59-1.5-0.25-1.83c0.25,0.15,0.26,0.52,0.75,0.45C224.84-2.66,225.03-1.87,224.69-1.57z M224.18-4.1
		c-0.07-0.61,0.52-0.59,1-0.69C224.97-4.45,224.81-4.06,224.18-4.1z M225.69,26.2c-0.13,0.12-0.32-0.17-0.25-0.23
		C225.57,25.86,225.76,26.14,225.69,26.2z M225.94,25.29c-0.13,0.12-0.32-0.17-0.25-0.23C225.82,24.94,226.01,25.22,225.94,25.29z
		 M226.94,19.78C225.34,20.04,226.38,19.08,226.94,19.78C227.98,19.56,226.99,20.46,226.94,19.78z M227.15,17.8
		c-0.38-0.34,0.5-0.8,0.63-0.69C228.15,17.45,227.27,17.91,227.15,17.8z M227.15-7.29c-0.75-0.69,0.5-1.61,0.63-1.84
		C229.78-10.97,228.03-6.25,227.15-7.29z M227.94-2.72c-0.13-0.12,0.19-0.3,0.25-0.23C228.32-2.83,228.01-2.66,227.94-2.72z
		 M228.94,30.56c-0.44-0.17-0.03-0.42,0-0.69C229.39,30.05,228.98,30.3,228.94,30.56z M228.44,19.09c-0.61-0.5,1.9-0.13,2.5,0
		C230.32,19.79,229.42,18.81,228.44,19.09z M230.94,7.61C230.64,7.63,230.79,7.28,230.94,7.61c0.17,0.06,0.25,0.16,0.27,0.26
		c0.02-0.18,0.02-0.35-0.02-0.48c0.75,0.39,0.28,0.83,0.25,1.6c-0.35-0.06-0.3-0.49-0.25-0.92C231.08,8.29,230.78,8.34,230.94,7.61z
		 M231.7,21.15c0-0.38,0-0.76,0-1.15C232.27,20.17,232.84,21.24,231.7,21.15z M231.16,17.8c0-0.23,1-0.92,1.26-0.69
		C233.17,17.8,231.16,19.07,231.16,17.8z M233.44,25.74c0.08,0.53-0.04,0.88-0.25,1.15C232.45,26.87,232.52,25.52,233.44,25.74z
		 M233.44,29.65c0.24,0,0.19,0.28,0.25,0.46C233.45,30.1,233.5,29.83,233.44,29.65z M233.7,24.83c0.24,0.01,0.19,0.28,0.25,0.46
		C233.71,25.28,233.75,25.01,233.7,24.83z M233.44,21.84c0.52-0.1,0.66,0.16,1,0.23C234.52,22.48,233.04,22.48,233.44,21.84z
		 M234.45,20.92c0.25,0.01,0.2,0.28,0.25,0.46C234.45,21.38,234.5,21.1,234.45,20.92z M234.95,18.86c0,1-0.43,0.04-0.25-0.46
		c-0.23-0.4-0.09-1.14-0.5-1.38c0.19-0.41,0.46-0.03,0.75,0C234.95,17.63,234.95,18.25,234.95,18.86z M235.2,15.42
		c-0.13,0.12-0.32-0.17-0.25-0.23C235.08,15.06,235.27,15.35,235.2,15.42z M235.7-32.1c0.24,0,0.2,0.28,0.25,0.46
		C235.71-31.65,235.76-31.93,235.7-32.1z M235.95-52.3c-0.13,0.11-0.32-0.17-0.25-0.23C235.83-52.66,236.02-52.37,235.95-52.3z
		 M235.95-53.68c-0.13,0.12-0.32-0.17-0.25-0.23C235.83-54.03,236.02-53.75,235.95-53.68z M236.2-30.5c0-0.16,0-0.31,0-0.46
		C236.9-31,236.13-29.24,236.2-30.5z M236.46-55.2c0.05,0.03,0.1,0.05,0.14,0.07C236.54-55.04,236.48-55.04,236.46-55.2z
		 M236.95-17.64C237-18.33,237.99-17.42,236.95-17.64C236.97-17.36,236.58-17.5,236.95-17.64z M237.7,8.99
		c-0.52-0.14-0.95-0.36-0.75-1.15C237.24,8.18,237.67,8.4,237.7,8.99C238,8.96,237.85,9.32,237.7,8.99z M239.2,15.19
		c-0.13,0.12-0.32-0.17-0.25-0.23C239.08,14.84,239.27,15.12,239.2,15.19z M238.7-11.22c0.13-0.12,0.32,0.17,0.25,0.23
		C238.82-10.87,238.63-11.15,238.7-11.22z M238.45,23.45c0.06-0.29,0.49-0.23,0.5,0C238.84,23.78,238.73,23.43,238.45,23.45z"/>
</g>
</svg>
