<svg id="icons" xmlns="http://www.w3.org/2000/svg" width="8.0109in" height="8.009in" viewBox="0 0 576.7861 576.6503"><g id="CANQqM"><path d="M-661.9217,882.7629h-80.8809c-.034-.7408-.0973-1.37-.0864-1.9975.12-6.8873.0632-13.7839.4118-20.66,1.3735-27.0913,7.0668-53.1323,19.3521-77.5054a132.4063,132.4063,0,0,1,8.949-14.9945,120.07,120.07,0,0,1,9.5217-12.2178A117.447,117.447,0,0,1-686.02,738.4516a96.3788,96.3788,0,0,1,25.5368-13.3933,112.5678,112.5678,0,0,1,25.6714-5.3476,131.39,131.39,0,0,1,20.8151-.499c8.1572.4939,16.32,1.1883,24.421,2.2473,11.9524,1.5622,23.84,3.6159,35.7788,5.2884a201.05,201.05,0,0,0,36.2613,2.1863,93.6734,93.6734,0,0,0,24.4876-3.9836,79.55,79.55,0,0,0,29.1842-17.1039c12.5886-11.2708,20.4791-25.3256,24.5526-41.637a109.2842,109.2842,0,0,0,3.0555-31.8677,118.1844,118.1844,0,0,0-10.1669-43.7456c-2.3533-5.1723-5.1856-10.05-9.3739-14.0015a58.855,58.855,0,0,0-12.4481-8.6286c-9.0561-4.94-18.5857-8.8623-28.0127-13.0026-11.9152-5.233-23.718-10.6887-34.91-17.3717a139.7926,139.7926,0,0,1-31.4314-24.9529,121.3853,121.3853,0,0,1-16.464-23.1,272.95,272.95,0,0,1-25.0516-60.9056,305.0774,305.0774,0,0,1-7.5676-34.9947c-1.4112-9.0668-2.3773-18.19-3.0178-27.3532-.72-10.2939-.7738-20.5931-.625-30.8955.0713-4.9362.49-9.8672.7443-14.8009.09-1.7509.1584-3.503.2492-5.5357,1.9584-.07,3.7543-.1624,5.5513-.1939q8.6418-.152,17.284-.267c2.12-.0316,4.2392-.072,6.3589-.0825,6.0626-.03,12.1261.0111,18.1875-.0832,8.5883-.1337,17.1747-.3794,25.7626-.5432,2.93-.0558,5.8614-.0088,8.9273-.0088.1346.8491.3046,1.5273.3409,2.2125.3137,5.9342.5625,11.8722.9117,17.8042.356,6.0479.7348,12.0961,1.233,18.1334q.6093,7.3842,1.53,14.7419a115.4274,115.4274,0,0,0,21.5,54.769,53.881,53.881,0,0,0,12.3153,12.312,34.6894,34.6894,0,0,0,23.86,6.4121,17.5012,17.5012,0,0,0,12.439-6.995c19.7624-25.1584,45.0165-42.3475,75.4331-52.0229A142.5158,142.5158,0,0,1-352.3,375.175a136.412,136.412,0,0,1,23.4557-.2084,143.7961,143.7961,0,0,1,37.7991,8.3208,166.7935,166.7935,0,0,1,52.3078,31.2531A187.8424,187.8424,0,0,1-210.08,445.664a212.5074,212.5074,0,0,1,18.0751,29.0565,227.1657,227.1657,0,0,1,19.3119,54.0182,270.5212,270.5212,0,0,1,5.0874,31.3307c.6165,6.0837.9585,12.2029,1.2,18.3149.24,6.0564.4015,12.13.2285,18.1849-.2116,7.4074-.77,14.8061-1.2457,22.2042-.6389,9.93-2.0445,19.7722-3.6281,29.5872-1.8653,11.5612-4.2633,23.0158-7.03,34.3949q-5.4032,22.2195-12.646,43.907a120.5812,120.5812,0,0,1-6.7682,15.9014c-3.2362,6.4693-6.4732,12.9567-10.11,19.2036a295.7679,295.7679,0,0,1-28.5993,40.6918A270.7806,270.7806,0,0,1-280.84,845.2906,220.4232,220.4232,0,0,1-343.64,878.8418a171.3079,171.3079,0,0,1-23.2931,6.4326c-5.4326,1.01-10.8342,2.2424-16.3024,2.99a188.9819,188.9819,0,0,1-22.831,2.0237c-4.7086.0686-9.4206.3-14.1247.1889q-13.06-.3091-26.0417-1.8967a310.6722,310.6722,0,0,1-64.76-15.4192c-10.4022-3.6116-20.603-7.7243-30.6631-12.1935a145.8988,145.8988,0,0,1-23.87-14.0133c-7.2017-5.0076-14.346-10.1013-21.6343-14.98a81.43,81.43,0,0,0-21.04-10.2447,61.0017,61.0017,0,0,0-23.8745-2.7782c-8.9333.8143-16.9637,3.8573-23.1593,10.7024-4.6734,5.1633-7.28,11.3378-8.7091,18.0731-1.7671,8.33-1.2157,16.613.4649,24.8821.5739,2.8239,1.0538,5.6673,1.5447,8.5072A10.4165,10.4165,0,0,1-661.9217,882.7629Z" transform="translate(742.8902 -313.8563)"/></g></svg>