<svg id="icon132" xmlns="http://www.w3.org/2000/svg" width="1.8415in" height="1.757in" viewBox="0 0 132.5869 126.5066"><path d="M116.6674,75.55c.37,3.0185.4687,6.0773,1.1254,9.058.5826,2.6646,1.6836,5.8425,4.0536,7.4449,3.5036,2.3726,7.241.2784,8.403-3.4617.9458-3.0373.523-5.7557.0959-8.8393-.7689-5.6234-.9162-11.3064-1.5579-16.9434-.23-1.9835-.4447-4.0077-.6176-6.01a14.6322,14.6322,0,0,0-1.3807-5.7344c-2.6915-5.056-9.4379-5.9479-12.062-.481-1.7755,3.6943-.5025,8.9638.18,12.7929C115.63,67.4236,116.17,71.4772,116.6674,75.55Zm62.1564,1.5295c-3.11,1.0511-5.1736,4.8424-6.8181,7.4449-1.7414,2.7643-3.5969,5.4127-5.4923,8.0475a70.4449,70.4449,0,0,0-4.1982,5.8749c-1.0794,1.8835-2.1146,4.367-1.5,6.7178a4.8214,4.8214,0,0,0,7.14,3.0808c2.2362-1.1726,3.4413-2.9887,4.8477-5.0128,2.5674-3.6885,5.5521-7.0424,8.1989-10.6607.9312-1.2726,1.8932-2.5671,2.8741-3.8158a10.8308,10.8308,0,0,0,2.24-4.1264C187.1631,80.1112,183.426,75.5254,178.8238,77.0792ZM151.2006,94.1957c2.2226-2.278,3.0821-4.8939,4.1062-7.834,1.8739-5.3535,4.3223-10.4879,6.314-15.798.7-1.87,1.4257-3.7668,2.1863-5.6342a14.7131,14.7131,0,0,0,1.3768-5.7345c-.1042-5.7236-5.7034-9.59-10.531-5.9126-3.255,2.4861-4.5224,7.7529-5.6534,11.4766-1.1946,3.9346-2.5576,7.7911-3.967,11.6471-1.0418,2.854-2.3458,5.621-3.113,8.572-.6919,2.643-1.1606,5.9693.2215,8.4774C144.1852,97.1629,148.4658,96.9979,151.2006,94.1957Zm5.2629,17.9814c-5.3846-4.2292-11.4431-6.28-18.2205-7.2639-6.1643-.8919-12.6469-.1894-18.7906-.5137-3.1674-.1672-6.2886-1.0807-8.4515-3.5533-5.6375-6.4449-8.2667-18.6975-10.796-26.6857-1.7172-5.4345-1.8917-12.1335-7.2625-14.852C85.334,55.4548,79.6887,62.8191,83.2518,71.62l17.4854,44.6077c1.8337,4.9236,3.5548,11.2146.5067,16.0192a11.5076,11.5076,0,0,1-11.4376,4.9453c-5.5183-.8349-7.626-6.4044-10.9525-11.1686-4.6833-6.6938-14.0819-15.6494-21.5713-10.4474-7.8493,5.4507-1.5228,13.1849,6.911,17.8762,3.9211,2.18,8.145,3.8426,11.993,6.145A45.3024,45.3024,0,0,1,90.6627,154.06c3.124,4.8158,6.648,10.2016,11.2043,14.117,8.52,7.3208,28.0622,4.8428,23.9586-8.5744-3.05-9.9743-10.8647-22.2052-2.1685-31.5661a8.6341,8.6341,0,0,1,11.1442-1.0644c3.9483,3.0643,5.7847,12.0657,2.45,19.7133-4.1347,9.4879-7.2587,26.8288,6.5178,26.68,13.67-.1457,17.4425-26.2559,18.9883-37.8487C164.0355,125.9508,162.7342,117.1007,156.4635,112.1771Z" transform="translate(-53.7065 -46.8604)"/></svg>