<svg id="icons" xmlns="http://www.w3.org/2000/svg" width="1.4953in" height="1.157in" viewBox="0 0 107.6643 83.3046"><path d="M-267.42,113.7627c.8606,1.599,1.5468,2.641,2.0052,3.775.9077,2.2454,2.494,3.041,4.8844,3.0266,11.9155-.0713,23.8316-.0334,35.7475-.0251a17.918,17.918,0,0,1,2.74.1262,2.6475,2.6475,0,0,1,2.4278,2.7342,2.6709,2.6709,0,0,1-2.1605,2.7206,10.8364,10.8364,0,0,1-2.72.273c-4.6662.0261-9.3329.041-13.9989-.0019a3.9164,3.9164,0,0,0-3.4484,1.5378c-8.5377,10.7112-19.2836,18.7906-30.9429,25.7615-1.5011.8975-3.0519,1.7114-4.5587,2.6a3.002,3.002,0,0,1-3.2788.0546,132.3869,132.3869,0,0,1-27.373-19.572,73.5358,73.5358,0,0,1-13.3849-16.3693c-4.8524-8.4453-7.17-17.4766-4.9515-27.1242,2.5017-10.8787,9.6916-17.1721,20.5445-19.2952,10.8769-2.1277,20.0663,2.8349,25.4377,13.5937.3989.7989.7958,1.5988,1.36,2.7334.9111-1.74,1.62-3.2153,2.4359-4.6291,3.394-5.88,8.0905-10.1911,14.8911-11.6464C-250.9746,71.7272-235.07,77.1284-231.61,93.7a35.64,35.64,0,0,1-1.1924,18.0045,3.0044,3.0044,0,0,1-3.4055,2.4483c-7.1647-.105-14.3323-.0847-21.4977-.01a3.1207,3.1207,0,0,1-3.2864-2.0523c-1.1353-2.5022-2.43-4.9317-3.6388-7.4011-.7-1.431-1.641-2.58-3.3822-2.524-1.8716.06-2.6943,1.3638-3.2735,2.96-1.619,4.4628-3.2822,8.91-4.9379,13.3589a6.0169,6.0169,0,0,1-1.4679,2.3685,23.1521,23.1521,0,0,1-1.0285-2.281c-1.9626-5.9309-3.8884-11.8739-5.84-17.8084a15.4967,15.4967,0,0,0-1.067-2.7939c-1.3736-2.4364-4.22-2.47-5.569-.0108a47.3365,47.3365,0,0,0-2.1578,5.05c-1.22,3.0107-2.4861,6.0061-3.5941,9.0583a2.7825,2.7825,0,0,1-3.19,2.0741c-2.3269-.12-4.6648-.0368-6.9979-.0214a9.568,9.568,0,0,0-1.9883.1321,3.2409,3.2409,0,0,0-2.6105,3.2307,3.1418,3.1418,0,0,0,2.88,2.9563c1.57.1483,3.1622.0864,4.7446.0919,2.5832.009,5.1664-.0129,7.75-.0015a3.8465,3.8465,0,0,0,4.0111-2.734c.7158-1.955,1.5176-3.8791,2.3092-5.8054.3049-.7422.6852-1.4533,1.2966-2.7349.7072,1.8413,1.2533,3.107,1.6837,4.4108,1.9061,5.7744,3.7772,11.56,5.6666,17.34a4.8346,4.8346,0,0,0,.7128,1.8461,6.9032,6.9032,0,0,0,2.65,1.9592,2.708,2.708,0,0,0,3.0757-1.6352,21.7108,21.7108,0,0,0,1.2574-2.9882c1.7372-4.6864,3.4492-9.3821,5.1862-14.0686C-268.2875,115.5142-267.9706,114.943-267.42,113.7627Z" transform="translate(327.2782 -73.5009)"/></svg>