<svg id="icons" xmlns="http://www.w3.org/2000/svg" width="1.3893in" height="0.9465in" viewBox="0 0 100.027 68.1467"><path d="M-153.5106,100.1376c-.383-.6908-.6968-1.165-.92-1.6786-.4312-.9922-.7826-2.0192-1.2174-3.01-2.4749-5.6382-5.3205-6.425-10.1549-2.5471a22.888,22.888,0,0,0-4.7133,5.1186,73.393,73.393,0,0,0-12.3757,37.4764,26.9189,26.9189,0,0,0,.9166,6.6209c.27,1.3044,1.1687,1.7718,2.65,1.4521,7.3237-1.5813,14.6815-3.0042,22.0083-4.5715,5.5395-1.185,7.7646-3.78,7.7189-9.3676-.0352-4.32-.3469-8.65-.7824-12.9505-.4028-3.9784-.4387-4.2064,3.175-6.0012.8655-.43,1.8105-.7,3.0658-1.1744.4451,2.5712.9256,4.8255,1.2074,7.1044a59.8459,59.8459,0,0,1,.7808,8.9349,43.9532,43.9532,0,0,1-1.2651,10.845c-1.5686,5.45-6.017,8.3328-11.2554,9.5613-7.7773,1.8239-15.6562,3.2158-23.4953,4.7745-5.2256,1.039-9.3777-1.1738-10.8452-6.3123a33.1026,33.1026,0,0,1-1.1978-9.3455c.1147-10.1485,2.82-19.7781,6.9778-28.9408a89.1186,89.1186,0,0,1,7.7249-13.646c3.3319-4.8388,7.8586-8.3448,13.97-9.2655a9.21,9.21,0,0,1,8.2326,2.6175,15.5393,15.5393,0,0,1,1.7907,2.0761C-147.8972,92.9639-148.3141,95.7635-153.5106,100.1376Z" transform="translate(190.2128 -82.8762)"/><path d="M-127.1338,100.3919a21.8892,21.8892,0,0,1-4.3351-6.4313,2.661,2.661,0,0,1,.2249-2.1107,45.09,45.09,0,0,1,4.6-6.45c1.9091-2.05,4.5619-2.5951,7.3715-2.2329,6.6476.857,11.1491,4.9695,14.89,10.0375,5.4615,7.3992,8.713,15.86,11.3682,24.5874a68.2328,68.2328,0,0,1,2.8058,16.6908,35.7124,35.7124,0,0,1-1.3412,10.0693c-1.1429,4.61-6.7585,7.3308-11.2855,6.2257-7.1018-1.7337-14.3531-2.8491-21.5273-4.2943a19.5792,19.5792,0,0,1-10.16-5.5144c-2.3049-2.3126-3.0709-5.3007-3.4411-8.39a49.3485,49.3485,0,0,1,.06-12.1674c.3161-2.4717.5309-4.9564.8508-7.4275.1361-1.0515.4248-2.0831.6672-3.2329a9.4872,9.4872,0,0,1,5.8455,2.8649c.5948.5891.5882,1.9915.5253,3.0031-.2735,4.395-.69,8.7811-1.0023,13.1741a12.07,12.07,0,0,0,.1638,2.7354c.6562,4.1,3.14,6.5114,7.1263,7.3541,6.5064,1.3758,13.0312,2.6644,19.5454,4.0035.893.1836,1.77.4435,2.654.6723,1.8657.4832,2.6618.1747,3.2273-1.6557a17.4739,17.4739,0,0,0,.7712-4.4,53.7709,53.7709,0,0,0-2.6468-17.9349c-2.366-7.7683-5.3211-15.2471-10.0555-21.92a17.8,17.8,0,0,0-7.4355-6.477c-2.9246-1.249-4.2069-.9361-5.8046,1.8178C-124.7513,95.1963-125.7511,97.5664-127.1338,100.3919Z" transform="translate(190.2128 -82.8762)"/><path d="M-161.3648,109.4254a20.3969,20.3969,0,0,1,1.7817-1.14c7.94-3.8282,12.3556-10.3931,14.5108-18.6976a28.7179,28.7179,0,0,0,.91-4.6529c.1339-1.52.8525-1.9243,2.2511-1.9855,5.0577-.2214,4.9893-.2445,6.0218,4.638,2.0031,9.4715,6.63,17.0143,15.8386,21.1a6.6587,6.6587,0,0,1,.9049.6975l-4.3771,7.0908c-.6611-.63-1.1324-1.03-1.5478-1.4813a38.9151,38.9151,0,0,0-12.6721-9.5674,5.7309,5.7309,0,0,0-5.0135-.0023,39.5022,39.5022,0,0,0-12.1679,9.0143c-.5542.569-1.1271,1.12-1.9625,1.9474Z" transform="translate(190.2128 -82.8762)"/></svg>