<svg id="Icons" xmlns="http://www.w3.org/2000/svg" width="1.0107in" height="0.6396in" viewBox="0 0 72.7699 46.0542"><defs><style>.cls-1{fill:#011520;}</style></defs><path class="cls-1" d="M94.9912,49.0518,78.3,39.4146a1.2488,1.2488,0,0,0-1.2529.0019C69.001,44.0923,61.87,48.2256,54.9038,52.2622a15.3713,15.3713,0,0,1,.4844,2.6089c7.0307-4.0737,14.2026-8.231,22.2886-12.93l14.1953,8.1963L40.5938,79.877a54.7251,54.7251,0,0,1-5.5474-1.6255,2.7046,2.7046,0,0,0-.0654-.7652,3.516,3.516,0,0,0-1.8194-2.2324,7.9153,7.9153,0,0,0-4.8647-.8047,19.8253,19.8253,0,0,1-2.3506-2.5054c2.4907-1.4467,4.8911-2.84,7.2334-4.2a13.2,13.2,0,0,1-2.1445-1.646c-2.4449,1.419-4.9551,2.877-7.5669,4.3946a1.25,1.25,0,0,0-.3848,1.8135A23.3463,23.3463,0,0,0,27.1406,76.75a1.2478,1.2478,0,0,0,1.0747.2554,5.6022,5.6022,0,0,1,3.6963.414c.4151.24.6.4834.6338.6319.0078.0327.0254.1094-.0723.2554a1.25,1.25,0,0,0,.57,1.8569,53.18,53.18,0,0,0,7.4521,2.2627,1.2318,1.2318,0,0,0,.2915.0346,1.2481,1.2481,0,0,0,.6279-.1694L94.9941,51.2148a1.25,1.25,0,0,0-.0029-2.163Z" transform="translate(-22.8463 -36.4062)"/><path class="cls-1" d="M48.8066,46.4878c-6.1938-6.6719-6.7-8.9585-6.7163-9.0483a1.24,1.24,0,0,0-1.2417-1.0333,1.2649,1.2649,0,0,0-1.2343,1.06c-.0157.0938-.45,2.3828-6.4537,9.229-3.768,4.2969-4.8559,9.7261-2.8422,14.168,1.8515,4.0849,6.0068,6.5561,10.93,6.5229,4.9537-.0332,9.0567-2.5664,10.82-6.685C54.002,56.1831,52.7515,50.7373,48.8066,46.4878ZM41.0313,62.6265a6.9261,6.9261,0,0,1-7.2071-5.8282,1.25,1.25,0,0,1,2.47-.39,4.47,4.47,0,0,0,4.83,3.7168,1.253,1.253,0,1,1-.0922,2.501Z" transform="translate(-22.8463 -36.4062)"/><polygon class="cls-1" points="58.129 10.078 55.075 8.314 46.268 13.432 49.323 15.194 58.129 10.078"/><polygon class="cls-1" points="55.422 18.717 64.229 13.599 61.182 11.84 52.376 16.958 55.422 18.717"/></svg>