<svg id="Layer_1" data-name="Layer 1" xmlns="http://www.w3.org/2000/svg" xmlns:xlink="http://www.w3.org/1999/xlink" width="0.6029in" height="0.6029in" viewBox="0 0 43.4086 43.4086"><defs><style>.cls-1,.cls-4{fill:none;}.cls-2{clip-path:url(#clip-path);}.cls-3{fill:#fbf8ec;}.cls-4{stroke:#692145;stroke-linecap:round;stroke-linejoin:round;stroke-width:1.5px;}</style><clipPath id="clip-path"><rect class="cls-1" y="-0.0004" width="43.409" height="43.409"/></clipPath></defs><g class="cls-2"><path class="cls-3" d="M43.4086,21.7043A21.7045,21.7045,0,1,1,21.7046,0a21.7037,21.7037,0,0,1,21.704,21.704"/></g><path class="cls-4" d="M22.1665,11.3661l2.6574-1.299a1.0525,1.0525,0,0,1,1.392.4523l1.3863,2.6129a1.0527,1.0527,0,0,0,.7479.5434l2.9135.511a1.0526,1.0526,0,0,1,.86,1.1841L31.71,18.3a1.0525,1.0525,0,0,0,.2856.8792l2.0567,2.1259a1.0525,1.0525,0,0,1,0,1.4636l-2.0567,2.1259a1.0525,1.0525,0,0,0-.2856.8792l.4143,2.9288a1.0527,1.0527,0,0,1-.86,1.1841l-2.9135.511a1.0527,1.0527,0,0,0-.7479.5434l-1.3863,2.6129a1.0525,1.0525,0,0,1-1.392.4523l-2.6574-1.2991a1.0529,1.0529,0,0,0-.9244,0l-2.6574,1.2991a1.0525,1.0525,0,0,1-1.392-.4523l-1.3864-2.6129a1.0523,1.0523,0,0,0-.7478-.5434l-2.9135-.511a1.0526,1.0526,0,0,1-.86-1.1841l.4142-2.9288a1.0523,1.0523,0,0,0-.2857-.8792L9.3567,22.7683a1.0525,1.0525,0,0,1,0-1.4636l2.0566-2.1259A1.0523,1.0523,0,0,0,11.699,18.3l-.4142-2.9288a1.0525,1.0525,0,0,1,.86-1.1841l2.9135-.511a1.0523,1.0523,0,0,0,.7478-.5434l1.3864-2.6129a1.0525,1.0525,0,0,1,1.392-.4523l2.6574,1.299A1.0522,1.0522,0,0,0,22.1665,11.3661Z"/><circle class="cls-4" cx="21.7043" cy="22.0365" r="7.5862"/><path class="cls-4" d="M17.9972,21.0805h0a1.1569,1.1569,0,0,1,1.6361,0l1.03,1.03a.2893.2893,0,0,0,.4091,0l2.7027-2.7026a1.1569,1.1569,0,0,1,1.6361,0h0a1.1569,1.1569,0,0,1,0,1.6361l-3.5465,3.5466a1.41,1.41,0,0,1-1.9937,0l-1.874-1.8742A1.1569,1.1569,0,0,1,17.9972,21.0805Z"/></svg>