<svg id="Layer_1" data-name="Layer 1" xmlns="http://www.w3.org/2000/svg" xmlns:xlink="http://www.w3.org/1999/xlink" width="0.6029in" height="0.6029in" viewBox="0 0 43.4086 43.4086"><defs><style>.cls-1,.cls-4{fill:none;}.cls-2{clip-path:url(#clip-path);}.cls-3{fill:#fbf8ec;}.cls-4{stroke:#692145;stroke-linecap:round;stroke-linejoin:round;stroke-width:1.5px;}</style><clipPath id="clip-path"><rect class="cls-1" y="-0.0004" width="43.409" height="43.409"/></clipPath></defs><g class="cls-2"><path class="cls-3" d="M43.4086,21.7043A21.7045,21.7045,0,1,1,21.7046,0a21.7037,21.7037,0,0,1,21.704,21.704"/></g><path class="cls-4" d="M19.6928,30.0683H14.4391v-.0274a1.7375,1.7375,0,0,0-.5115-1.2352L9.6622,25.42a4.0487,4.0487,0,0,1-1.23-3.0029V17.3311a1.3584,1.3584,0,1,1,2.7167,0v3.8a1.4429,1.4429,0,0,1,1.8708.0418c.5921.4337,4.2257,3.9632,5.003,4.7405a5.4208,5.4208,0,0,1,1.67,4.128Zm-5.1989-.0548H19.638a5.3672,5.3672,0,0,0-1.6538-4.062c-.7768-.7767-4.4072-4.3024-4.9966-4.7351a1.3988,1.3988,0,0,0-1.8466-.0027,1.3063,1.3063,0,0,0,0,1.8434l2.4548,2.4554-.0387.0386-2.4547-2.4553a1.3609,1.3609,0,0,1-.0081-1.9126V17.3311a1.3036,1.3036,0,1,0-2.6072,0v5.0856a3.9948,3.9948,0,0,0,1.2115,2.9621l4.2654,3.3861A1.79,1.79,0,0,1,14.4939,30.0135Z"/><path class="cls-4" d="M19.6655,30.0411h-5.199a.8872.8872,0,0,0-.8872.8872v2.3242h6.9735V30.9283A.8873.8873,0,0,0,19.6655,30.0411Z"/><path class="cls-4" d="M28.8651,30.0683H23.6114v-.0274a5.4208,5.4208,0,0,1,1.67-4.128c.7773-.7773,4.4109-4.3068,5.003-4.7405a1.4413,1.4413,0,0,1,1.8707-.0418v-3.8a1.3584,1.3584,0,1,1,2.7168,0v5.0856a4.0472,4.0472,0,0,1-1.2277,3.0008l-4.27,3.39a1.7354,1.7354,0,0,0-.5094,1.233Zm-5.1989-.0548H28.81a1.7886,1.7886,0,0,1,.5277-1.2464l4.27-3.39a3.9926,3.9926,0,0,0,1.2094-2.96V17.3311a1.3036,1.3036,0,1,0-2.6072,0v3.8521a1.3609,1.3609,0,0,1-.0081,1.9126L29.747,25.5511l-.0386-.0386,2.4548-2.4554a1.3066,1.3066,0,0,0,0-1.8434,1.3988,1.3988,0,0,0-1.8466.0027c-.5894.4327-4.22,3.9584-4.9966,4.7351A5.3672,5.3672,0,0,0,23.6662,30.0135Z"/><path class="cls-4" d="M28.8377,30.0411h-5.199a.8873.8873,0,0,0-.8873.8872v2.3242h6.9735V30.9283A.8872.8872,0,0,0,28.8377,30.0411Z"/><path class="cls-4" d="M21.5229,19.0675a.249.249,0,0,0,.2584,0c.8767-.5267,5.9173-3.6884,5.9173-6.7452a3.2529,3.2529,0,0,0-5.8446-1.9687.2516.2516,0,0,1-.4037,0,3.253,3.253,0,0,0-5.8447,1.9687C15.6056,15.3791,20.6462,18.5408,21.5229,19.0675Z"/></svg>