<svg id="Layer_1" data-name="Layer 1" xmlns="http://www.w3.org/2000/svg" xmlns:xlink="http://www.w3.org/1999/xlink" width="0.6029in" height="0.6029in" viewBox="0 0 43.4086 43.4086"><defs><style>.cls-1,.cls-4{fill:none;}.cls-2{clip-path:url(#clip-path);}.cls-3{fill:#fbf8ec;}.cls-4{stroke:#692145;stroke-linecap:round;stroke-linejoin:round;stroke-width:1.5px;}</style><clipPath id="clip-path"><rect class="cls-1" y="-0.0004" width="43.409" height="43.409"/></clipPath></defs><g class="cls-2"><path class="cls-3" d="M43.4086,21.7043A21.7045,21.7045,0,1,1,21.7046,0a21.7037,21.7037,0,0,1,21.704,21.704"/></g><path class="cls-4" d="M22.027,23.6646a1.17,1.17,0,0,1,.2891-1.81c-.1048-.7519-.0918-1.1287,1.3577-1.6216.8088-.2747,3.0493-1.02,3.0493-1.02"/><path class="cls-4" d="M34.9288,12.3154l-2.6,3.4535c-.3885.9749-1.971,4.491-2.6151,5.6614a2.4763,2.4763,0,0,1-.5724.69l-2.5929,2.57a1.7435,1.7435,0,0,1-.7754.3876s-2.2748.8532-3.0493,1.0883A1.2822,1.2822,0,0,1,21.106,25.29c-.3068-.9848.4786-1.3773,1.1344-1.7033.8957-.4454,2.8664-1.5242,2.8664-1.5242s1.6263-2.2079,1.6945-3.2392c.18-2.6886-.259-5.7548-5.7391-3.39-2.0376.88-3.41-.0865-3.477-1.9154-.02-.5789,1.9671.0187,4.8338-2.0623A8.9291,8.9291,0,0,1,27.7058,9.89l1.8315-1.7493"/><path class="cls-4" d="M18.6761,19.744a1.17,1.17,0,0,1-.2886,1.8093c.1043.7514.0917,1.1291-1.3573,1.6216-.8089.2751-3.0489,1.02-3.0489,1.02"/><path class="cls-4" d="M5.7748,31.0936l2.6-3.4543c.389-.9749,1.9714-4.491,2.6147-5.661a2.4872,2.4872,0,0,1,.5728-.69l2.5925-2.57a1.7527,1.7527,0,0,1,.7758-.3872s2.2748-.8536,3.0493-1.0887a1.2817,1.2817,0,0,1,1.6172.8761c.3069.9849-.4776,1.3774-1.1343,1.7033-.8958.4459-2.8664,1.5247-2.8664,1.5247s-1.6259,2.2074-1.6937,3.2392c-.18,2.6882.2586,5.7548,5.7388,3.39,2.0379-.88,3.41.086,3.4769,1.9149.02.5789-1.9666-.0187-4.8338,2.0619a8.93,8.93,0,0,1-5.2872,1.5659l-1.8311,1.7493"/></svg>