<svg id="Layer_1" data-name="Layer 1" xmlns="http://www.w3.org/2000/svg" xmlns:xlink="http://www.w3.org/1999/xlink" width="0.6029in" height="0.6029in" viewBox="0 0 43.4086 43.4086"><defs><style>.cls-1,.cls-4{fill:none;}.cls-2{clip-path:url(#clip-path);}.cls-3{fill:#fbf8ec;}.cls-4{stroke:#692145;stroke-linecap:round;stroke-linejoin:round;stroke-width:1.5px;}</style><clipPath id="clip-path"><rect class="cls-1" y="-0.0004" width="43.409" height="43.409"/></clipPath></defs><g class="cls-2"><path class="cls-3" d="M43.4086,21.7043A21.7045,21.7045,0,1,1,21.7046,0a21.7037,21.7037,0,0,1,21.704,21.704"/><path class="cls-4" d="M15.83,20.3224a2.0135,2.0135,0,0,0-2.8392,0l-1.8928,1.8928a2.0077,2.0077,0,0,0,2.8392,2.8393L15.83,23.1617A2.0136,2.0136,0,0,0,15.83,20.3224Z"/><path class="cls-4" d="M18.67,23.1617a2.0135,2.0135,0,0,0-2.8392,0l-1.8928,1.8928a2.0076,2.0076,0,0,0,2.8392,2.8392L18.67,26.0009A2.0135,2.0135,0,0,0,18.67,23.1617Z"/><path class="cls-4" d="M21.5088,26.0009a2.0136,2.0136,0,0,0-2.8393,0l-1.8928,1.8928a2.0076,2.0076,0,0,0,2.8392,2.8392L21.5088,28.84A2.0137,2.0137,0,0,0,21.5088,26.0009Z"/><path class="cls-4" d="M24.348,28.84h0a2.0135,2.0135,0,0,0-2.8392,0l-1.8929,1.8928a2.0136,2.0136,0,0,0,0,2.8393h0a2.0135,2.0135,0,0,0,2.8392,0l1.8928-1.8929A2.0135,2.0135,0,0,0,24.348,28.84Z"/><path class="cls-4" d="M33.0617,11.6087a8.0306,8.0306,0,0,0-11.3569,0L18.8656,14.448a2.0134,2.0134,0,0,0,0,2.8391v0a2.0135,2.0135,0,0,0,2.8392,0L24.544,14.448l8.5177,8.5176A8.0306,8.0306,0,0,0,33.0617,11.6087Z"/><path class="cls-4" d="M24.5424,14.45l7.77,7.77a2.002,2.002,0,0,1-2.8313,2.8313L24.08,19.6492l-.0081.0082,5.4013,5.4012a2.0019,2.0019,0,1,1-2.8311,2.831l-5.4012-5.4012-.0081.0081,5.4012,5.4013A1.99,1.99,0,0,1,24.6753,31.23l-.0055.01a2.0059,2.0059,0,0,0,2.0778-3.2364,2.0141,2.0141,0,0,0,2.84-2.8392,2.01,2.01,0,0,0,2.792-2.8814L24.544,14.448Z"/><path class="cls-4" d="M21.7115,11.6026A8.0362,8.0362,0,0,0,10.3486,22.97l.0081-.0081A8.0247,8.0247,0,0,1,21.703,11.6105l.0018-.0018Z"/></g></svg>