<svg id="Layer_1" data-name="Layer 1" xmlns="http://www.w3.org/2000/svg" xmlns:xlink="http://www.w3.org/1999/xlink" width="43.409" height="43.408" viewBox="0 0 43.409 43.408"><defs><style>.cls-1{fill:none;}.cls-2{clip-path:url(#clip-path);}.cls-3{fill:#fbf8ec;}.cls-4{fill:#692145;}</style><clipPath id="clip-path" transform="translate(0.0004 -0.0003)"><rect class="cls-1" y="-0.0004" width="43.409" height="43.409"/></clipPath></defs><g class="cls-2"><path class="cls-3" d="M43.4086,21.7043A21.7045,21.7045,0,1,1,21.7046,0a21.7037,21.7037,0,0,1,21.704,21.704" transform="translate(0.0004 -0.0003)"/><path class="cls-4" d="M26.62,20.6159h-7.655l5.126-5.126,1.912,1.912.002.002.002.002,1.912,1.911Zm-6.64,6.641-3.589-.239-.239-3.589.637-.637h7.656Zm12.931-12.735-4.024-4.024a1.0886,1.0886,0,1,0-1.54,1.539l1.242,1.242-1.815,1.816-1.912-1.912-.001-.002-.003-.002-1.339-1.34a1.0882,1.0882,0,0,0-1.539,1.539l.572.572-6.981,6.981-.009.009-1.299,1.299a1.0842,1.0842,0,0,0-.315.842l.302,4.538-3.753,3.753a1.0889,1.0889,0,0,0,1.54,1.54l3.753-3.753,4.538.302q.036.003.072.003a1.0917,1.0917,0,0,0,.77-.318l6.669-6.669.009-.009,1.611-1.611.571.572a1.0882,1.0882,0,0,0,1.539-1.539L30.23,18.55l-.002-.002-.002-.002-1.912-1.911,1.815-1.816,1.243,1.243a1.0886,1.0886,0,0,0,1.539-1.54" transform="translate(0.0004 -0.0003)"/></g></svg>