<svg id="Layer_1" data-name="Layer 1" xmlns="http://www.w3.org/2000/svg" xmlns:xlink="http://www.w3.org/1999/xlink" width="43.409" height="43.408" viewBox="0 0 43.409 43.408"><defs><style>.cls-1{fill:none;}.cls-2{clip-path:url(#clip-path);}.cls-3{fill:#fbf8ec;}.cls-4{fill:#692145;}</style><clipPath id="clip-path" transform="translate(0.0004 -0.0001)"><rect class="cls-1" y="0.0004" width="43.409" height="43.408"/></clipPath></defs><g class="cls-2"><path class="cls-3" d="M43.4086,21.7041A21.7045,21.7045,0,1,1,21.7046,0a21.7037,21.7037,0,0,1,21.704,21.704" transform="translate(0.0004 -0.0001)"/><path class="cls-4" d="M26.2661,23.9851a1.141,1.141,0,0,1-1.14,1.141h-2.281v2.281a1.1405,1.1405,0,0,1-2.281,0v-2.281h-2.281a1.141,1.141,0,1,1,0-2.282h2.281v-2.28a1.1405,1.1405,0,1,1,2.281,0v2.28h2.281a1.141,1.141,0,0,1,1.14,1.141m5.702,6.843a1.1414,1.1414,0,0,1-1.14,1.14H12.58a1.1412,1.1412,0,0,1-1.139-1.14V17.1431a1.1414,1.1414,0,0,1,1.139-1.141h18.248a1.1416,1.1416,0,0,1,1.14,1.141Zm-13.685-18.247a1.1416,1.1416,0,0,1,1.14-1.141h4.562a1.1425,1.1425,0,0,1,1.141,1.141v1.14h-6.843Zm12.545,1.14h-3.421v-1.14a3.4257,3.4257,0,0,0-3.422-3.422h-4.562a3.4264,3.4264,0,0,0-3.422,3.422v1.14H12.58a3.4262,3.4262,0,0,0-3.421,3.422v13.685a3.426,3.426,0,0,0,3.421,3.421h18.248a3.4253,3.4253,0,0,0,3.421-3.421V17.1431a3.4255,3.4255,0,0,0-3.421-3.422" transform="translate(0.0004 -0.0001)"/></g></svg>