<svg id="Layer_1" data-name="Layer 1" xmlns="http://www.w3.org/2000/svg" xmlns:xlink="http://www.w3.org/1999/xlink" width="43.409" height="43.408" viewBox="0 0 43.409 43.408"><defs><style>.cls-1{fill:none;}.cls-2{clip-path:url(#clip-path);}.cls-3{fill:#fbf8ec;}.cls-4{fill:#692145;}</style><clipPath id="clip-path" transform="translate(0.0004 -0.0002)"><rect class="cls-1" y="0.0004" width="43.409" height="43.408"/></clipPath></defs><g class="cls-2"><path class="cls-3" d="M43.4086,21.7042A21.7045,21.7045,0,1,1,21.7046,0a21.7037,21.7037,0,0,1,21.704,21.704" transform="translate(0.0004 -0.0002)"/><path class="cls-4" d="M21.7051,31.5227a42.176,42.176,0,0,1-8.04-7.717h3.477a1.1411,1.1411,0,0,0,.967-.536l1.536-2.458,2.111,6.755a1.1407,1.1407,0,0,0,2.001.344l3.079-4.105h2.908a42.2321,42.2321,0,0,1-8.039,7.717m-5.133-17.982a5.6761,5.6761,0,0,1,4.264,1.983,1.1788,1.1788,0,0,0,1.737,0,5.6724,5.6724,0,0,1,4.263-1.983,5.0771,5.0771,0,0,1,5.132,5.132,6.5643,6.5643,0,0,1-.796,2.851h-4.906a1.14,1.14,0,0,0-.912.457l-2.085,2.78-2.187-6.998a1.1406,1.1406,0,0,0-2.056-.264l-2.516,4.025h-4.274a6.5759,6.5759,0,0,1-.795-2.851,5.0769,5.0769,0,0,1,5.131-5.132m16.352,9.529a9.2907,9.2907,0,0,0,1.325-4.397,7.3345,7.3345,0,0,0-7.413-7.413,7.9757,7.9757,0,0,0-5.131,1.917,7.983,7.983,0,0,0-5.133-1.917,7.3352,7.3352,0,0,0-7.413,7.413,9.2907,9.2907,0,0,0,1.325,4.397,1.085,1.085,0,0,0,.07.13c3.058,5.409,10.117,10.398,10.496,10.664a1.1427,1.1427,0,0,0,1.309,0c.38-.266,7.436-5.255,10.495-10.663a1.0979,1.0979,0,0,0,.07-.131" transform="translate(0.0004 -0.0002)"/></g></svg>